<?xml version="1.0" encoding="UTF-8" standalone="no"?>
<svg width="330px" height="445px" viewBox="0 0 330 445" version="1.1" xmlns="http://www.w3.org/2000/svg" xmlns:xlink="http://www.w3.org/1999/xlink" xmlns:sketch="http://www.bohemiancoding.com/sketch/ns">
    <!-- Generator: Sketch 3.2.2 (9983) - http://www.bohemiancoding.com/sketch -->
    <title>cheers3</title>
    <desc>Created with Sketch.</desc>
    <defs>
        <path d="M6.407,6.872 C7.049,6.889 7.637,6.326 7.653,5.68 C7.67,5.038 7.106,4.449 6.462,4.433 C5.82,4.417 5.231,4.98 5.214,5.625 C5.198,6.268 5.76,6.856 6.407,6.872 L6.407,6.872 Z M7.614,16.699 L7.614,8.175 L5.241,8.175 L5.241,16.699 L7.614,16.699 L7.614,16.699 Z M11.36,16.721 L11.36,15.906 C11.361,14.576 11.344,13.243 11.37,11.912 C11.384,11.121 11.899,10.597 12.583,10.592 C13.266,10.586 13.774,11.109 13.815,11.896 C13.839,12.355 13.821,12.816 13.821,13.278 C13.822,14.419 13.821,15.56 13.821,16.699 L16.247,16.699 C16.247,14.673 16.282,12.683 16.22,10.696 C16.206,10.22 15.941,9.703 15.661,9.295 C14.679,7.871 13.161,7.756 11.944,8.971 C11.789,9.127 11.676,9.324 11.544,9.502 C11.492,9.469 11.44,9.438 11.387,9.406 C11.368,8.992 11.348,8.579 11.328,8.17 L8.956,8.17 L8.956,16.721 L11.36,16.721 L11.36,16.721 Z M17.362,20.43 L2.893,20.43 C1.598,19.981 0.725,19.108 0.277,17.813 L0.277,3.344 C0.725,2.048 1.598,1.175 2.893,0.727 L17.362,0.727 C18.659,1.175 19.531,2.048 19.979,3.344 L19.979,17.813 C19.531,19.108 18.659,19.981 17.362,20.43 L17.362,20.43 Z" id="path-1"></path>
    </defs>
    <g id="Page-1" stroke="none" stroke-width="1" fill="none" fill-rule="evenodd" sketch:type="MSPage">
        <g id="cheers3" sketch:type="MSLayerGroup" transform="translate(-128.000000, -175.000000)">
            <path d="M213.483,292.02 C213.483,292.02 192.193,296.488 186.729,308.927 L178.631,309.454 C178.631,309.454 187.951,290.687 213.483,286.127" id="Fill-6" fill="#68787D" sketch:type="MSShapeGroup"></path>
            <path d="M213.483,292.02 C213.483,292.02 192.193,296.488 186.729,308.927 L178.631,309.454 C178.631,309.454 187.951,290.687 213.483,286.127" id="Stroke-7" stroke="#0B0A0B" stroke-width="3" sketch:type="MSShapeGroup"></path>
            <path d="M368.194,238.695 C368.194,238.695 389.909,237.417 397.149,225.92 L405.237,226.595 C405.237,226.595 393.25,243.781 367.325,244.523" id="Fill-8" fill="#68787D" sketch:type="MSShapeGroup"></path>
            <path d="M368.194,238.695 C368.194,238.695 389.909,237.417 397.149,225.92 L405.237,226.595 C405.237,226.595 393.25,243.781 367.325,244.523" id="Stroke-9" stroke="#0B0A0B" stroke-width="3" sketch:type="MSShapeGroup"></path>
            <path d="M369.201,460.847 C369.201,467.56 363.938,473.005 357.449,473.005 L225.235,473.005 C218.744,473.005 213.483,467.56 213.483,460.847 L213.483,191.354 C213.483,184.64 218.744,179.197 225.235,179.197 L357.449,179.197 C363.938,179.197 369.201,184.64 369.201,191.354 L369.201,460.847" id="Fill-10" fill="#FFFFFF" sketch:type="MSShapeGroup"></path>
            <path d="M369.201,460.847 C369.201,467.56 363.938,473.005 357.449,473.005 L225.235,473.005 C218.744,473.005 213.483,467.56 213.483,460.847 L213.483,191.354 C213.483,184.64 218.744,179.197 225.235,179.197 L357.449,179.197 C363.938,179.197 369.201,184.64 369.201,191.354 L369.201,460.847 L369.201,460.847 Z" id="Stroke-11" stroke="#0B0A0B" stroke-width="3" sketch:type="MSShapeGroup"></path>
            <path d="M353.384,405.274 C353.384,411.198 348.584,415.999 342.661,415.999 L239.892,415.999 C233.969,415.999 229.169,411.198 229.169,405.274 L229.169,232.803 C229.169,226.88 233.969,222.079 239.892,222.079 L342.661,222.079 C348.584,222.079 353.384,226.88 353.384,232.803 L353.384,405.274" id="Fill-12" fill="#ACAEAB" sketch:type="MSShapeGroup"></path>
            <path d="M353.384,405.274 C353.384,411.198 348.584,415.999 342.661,415.999 L239.892,415.999 C233.969,415.999 229.169,411.198 229.169,405.274 L229.169,232.803 C229.169,226.88 233.969,222.079 239.892,222.079 L342.661,222.079 C348.584,222.079 353.384,226.88 353.384,232.803 L353.384,405.274 L353.384,405.274 Z" id="Stroke-13" stroke="#FFFFFF" sketch:type="MSShapeGroup"></path>
            <path d="M310.108,449.077 C310.108,459.441 301.706,467.843 291.342,467.843 C280.977,467.843 272.575,459.441 272.575,449.077 C272.575,438.712 280.977,430.31 291.342,430.31 C301.706,430.31 310.108,438.712 310.108,449.077" id="Fill-14" fill="#FFFFFF" sketch:type="MSShapeGroup"></path>
            <path d="M310.108,449.077 C310.108,459.441 301.706,467.843 291.342,467.843 C280.977,467.843 272.575,459.441 272.575,449.077 C272.575,438.712 280.977,430.31 291.342,430.31 C301.706,430.31 310.108,438.712 310.108,449.077 L310.108,449.077 Z" id="Stroke-15" stroke="#0B0A0B" stroke-width="3" sketch:type="MSShapeGroup"></path>
            <path d="M257.569,198.857 C257.569,200.357 256.351,201.574 254.85,201.574 C253.35,201.574 252.134,200.357 252.134,198.857 C252.134,197.356 253.35,196.139 254.85,196.139 C256.351,196.139 257.569,197.356 257.569,198.857" id="Fill-16" fill="#0B0A0B" sketch:type="MSShapeGroup"></path>
            <path d="M257.569,198.857 C257.569,200.357 256.351,201.574 254.85,201.574 C253.35,201.574 252.134,200.357 252.134,198.857 C252.134,197.356 253.35,196.139 254.85,196.139 C256.351,196.139 257.569,197.356 257.569,198.857 L257.569,198.857 Z" id="Stroke-17" stroke="#0B0A0C" stroke-width="3" sketch:type="MSShapeGroup"></path>
            <path d="M334.161,198.857 C334.161,200.357 332.945,201.574 331.443,201.574 C329.942,201.574 328.725,200.357 328.725,198.857 C328.725,197.356 329.942,196.139 331.443,196.139 C332.945,196.139 334.161,197.356 334.161,198.857" id="Fill-18" fill="#0B0A0B" sketch:type="MSShapeGroup"></path>
            <path d="M334.161,198.857 C334.161,200.357 332.945,201.574 331.443,201.574 C329.942,201.574 328.725,200.357 328.725,198.857 C328.725,197.356 329.942,196.139 331.443,196.139 C332.945,196.139 334.161,197.356 334.161,198.857 L334.161,198.857 Z" id="Stroke-19" stroke="#0B0A0C" stroke-width="3" sketch:type="MSShapeGroup"></path>
            <path d="M272.575,201.575 C284.452,213.452 303.675,213.452 315.551,201.574" id="Stroke-20" stroke="#0B0A0B" stroke-width="3" sketch:type="MSShapeGroup"></path>
            <path d="M304.878,208.491 C304.878,208.491 301.696,200.198 304.878,199.602 C308.06,199.006 310.607,205.583 310.607,205.583" id="Fill-21" fill="#D76781" sketch:type="MSShapeGroup"></path>
            <path d="M304.878,208.491 C304.878,208.491 301.696,200.198 304.878,199.602 C308.06,199.006 310.607,205.583 310.607,205.583" id="Stroke-22" stroke="#0B0A0B" stroke-width="3" sketch:type="MSShapeGroup"></path>
            <path d="M315.643,565.388 C315.643,565.388 375.445,562.89 386.228,580.567 L388.462,578.976 C388.462,578.976 387.579,561.526 317.051,562.72 L315.643,565.388" id="Fill-23" fill="#4B575A" sketch:type="MSShapeGroup"></path>
            <path d="M315.643,565.388 C315.643,565.388 375.445,562.89 386.228,580.567 L388.462,578.976 C388.462,578.976 387.579,561.526 317.051,562.72 L315.643,565.388 L315.643,565.388 Z" id="Stroke-24" stroke="#1A1918" stroke-width="2" sketch:type="MSShapeGroup"></path>
            <path d="M201.195,316.148 C200.378,332.191 213.796,334.063 213.483,334.02 L213.483,298.275 C213.795,298.216 200.379,300.791 201.195,316.148" id="Fill-25" fill="#68797E" sketch:type="MSShapeGroup"></path>
            <path d="M201.195,316.148 C200.378,332.191 213.796,334.063 213.483,334.02 L213.483,298.275 C213.795,298.216 200.379,300.791 201.195,316.148 L201.195,316.148 Z" id="Stroke-26" stroke="#1A1918" stroke-width="3" sketch:type="MSShapeGroup"></path>
            <path d="M381.494,207.447 C382.311,191.405 368.893,189.532 369.206,189.575 L369.206,225.32 C368.893,225.379 382.31,222.804 381.494,207.447" id="Fill-27" fill="#68797E" sketch:type="MSShapeGroup"></path>
            <path d="M381.494,207.447 C382.311,191.405 368.893,189.532 369.206,189.575 L369.206,225.32 C368.893,225.379 382.31,222.804 381.494,207.447 L381.494,207.447 Z" id="Stroke-28" stroke="#0B0A0B" stroke-width="3" sketch:type="MSShapeGroup"></path>
            <path d="M165.033,333.055 C166.483,332.849 146.348,345.506 150.034,377.139 L147.474,377.492 C141.545,348.002 163.175,329.092 163.175,329.092 L165.033,333.055" id="Fill-29" fill="#4B575A" sketch:type="MSShapeGroup"></path>
            <path d="M165.033,333.055 C166.483,332.849 146.348,345.506 150.034,377.139 L147.474,377.492 C141.545,348.002 163.175,329.092 163.175,329.092 L165.033,333.055 L165.033,333.055 Z" id="Stroke-30" stroke="#1A1918" stroke-width="2" sketch:type="MSShapeGroup"></path>
            <path d="M259.344,571.614 L259.344,577.441 C259.344,577.441 281.006,587.718 300.005,577.441 L300.005,571.614" id="Fill-31" fill="#4B575A" sketch:type="MSShapeGroup"></path>
            <path d="M259.344,571.614 L259.344,577.441 C259.344,577.441 281.006,587.718 300.005,577.441 L300.005,571.614" id="Stroke-32" stroke="#1A1918" stroke-width="3" sketch:type="MSShapeGroup"></path>
            <path d="M162.223,331.349 L163.175,332.575 C160.545,334.654 150.572,344.521 147.221,362.394 C147.221,362.394 150.96,339.603 162.223,331.349" id="Fill-33" fill="#FFFFFF" sketch:type="MSShapeGroup"></path>
            <path d="M172.375,398.14 C172.375,409.737 162.972,419.14 151.375,419.14 C139.776,419.14 130.374,409.737 130.374,398.14 C130.374,386.541 139.776,377.139 151.375,377.139 C162.972,377.139 172.375,386.541 172.375,398.14" id="Fill-34" fill="#68797E" sketch:type="MSShapeGroup"></path>
            <path d="M172.375,398.14 C172.375,409.737 162.972,419.14 151.375,419.14 C139.776,419.14 130.374,409.737 130.374,398.14 C130.374,386.541 139.776,377.139 151.375,377.139 C162.972,377.139 172.375,386.541 172.375,398.14 L172.375,398.14 Z" id="Stroke-35" stroke="#1A1918" stroke-width="3" sketch:type="MSShapeGroup"></path>
            <path d="M299.911,571.614 C299.911,575.644 290.832,578.909 279.628,578.909 C268.425,578.909 259.343,575.644 259.343,571.614 C259.343,567.585 268.425,564.317 279.628,564.317 C290.832,564.317 299.911,567.585 299.911,571.614" id="Fill-36" fill="#68797E" sketch:type="MSShapeGroup"></path>
            <path d="M299.911,571.614 C299.911,575.644 290.832,578.909 279.628,578.909 C268.425,578.909 259.343,575.644 259.343,571.614 C259.343,567.585 268.425,564.317 279.628,564.317 C290.832,564.317 299.911,567.585 299.911,571.614 L299.911,571.614 Z" id="Stroke-37" stroke="#4B575A" stroke-width="2" sketch:type="MSShapeGroup"></path>
            <path d="M420.926,214.984 C419.476,214.778 439.611,227.436 435.925,259.068 L438.485,259.421 C444.414,229.932 422.784,211.022 422.784,211.022 L420.926,214.984" id="Fill-38" fill="#4B575A" sketch:type="MSShapeGroup"></path>
            <path d="M420.926,214.984 C419.476,214.778 439.611,227.436 435.925,259.068 L438.485,259.421 C444.414,229.932 422.784,211.022 422.784,211.022 L420.926,214.984 L420.926,214.984 Z" id="Stroke-39" stroke="#1A1918" stroke-width="2" sketch:type="MSShapeGroup"></path>
            <path d="M423.736,213.279 L422.784,214.504 C425.415,216.583 435.387,226.45 438.738,244.323 C438.738,244.323 435,221.533 423.736,213.279" id="Fill-40" fill="#FFFFFF" sketch:type="MSShapeGroup"></path>
            <path d="M423.736,213.279 L422.784,214.504 C425.415,216.583 435.387,226.45 438.738,244.323 C438.738,244.323 435,221.533 423.736,213.279 L423.736,213.279 Z" id="Stroke-41" stroke="#1A1918" stroke-width="3" sketch:type="MSShapeGroup"></path>
            <path d="M413.584,280.069 C413.584,291.667 422.986,301.069 434.584,301.069 C446.182,301.069 455.585,291.667 455.585,280.069 C455.585,268.471 446.182,259.068 434.584,259.068 C422.986,259.068 413.584,268.471 413.584,280.069" id="Fill-42" fill="#68797E" sketch:type="MSShapeGroup"></path>
            <path d="M413.584,280.069 C413.584,291.667 422.986,301.069 434.584,301.069 C446.182,301.069 455.585,291.667 455.585,280.069 C455.585,268.471 446.182,259.068 434.584,259.068 C422.986,259.068 413.584,268.471 413.584,280.069 L413.584,280.069 Z" id="Stroke-43" stroke="#1A1918" stroke-width="3" sketch:type="MSShapeGroup"></path>
            <path d="M211.919,300.677 L211.919,304.921 C211.919,304.921 211.165,303.749 209.238,304.914 C209.238,304.914 208.853,303.881 208.404,302.466 C208.404,302.466 208.959,301.207 211.919,300.677" id="Fill-44" fill="#FFFFFF" sketch:type="MSShapeGroup"></path>
            <path d="M205.729,304.914 L206.504,306.716 C206.504,306.716 202.775,309.035 202.696,313.993 C202.696,313.993 202.191,309.626 205.729,304.914" id="Fill-45" fill="#FFFFFF" sketch:type="MSShapeGroup"></path>
            <path d="M275.175,599.882 C275.993,583.839 262.574,581.966 262.887,582.009 L262.887,617.755 C262.576,617.813 275.992,615.239 275.175,599.882" id="Fill-46" fill="#68797E" sketch:type="MSShapeGroup"></path>
            <path d="M275.175,599.882 C275.993,583.839 262.574,581.966 262.887,582.009 L262.887,617.755 C262.576,617.813 275.992,615.239 275.175,599.882 L275.175,599.882 Z" id="Stroke-47" stroke="#1A1918" stroke-width="3" sketch:type="MSShapeGroup"></path>
            <path d="M264.451,615.353 L264.451,611.108 C264.451,611.108 265.205,612.28 267.133,611.116 C267.133,611.116 267.517,612.147 267.966,613.563 C267.966,613.563 267.412,614.821 264.451,615.353" id="Fill-48" fill="#FFFFFF" sketch:type="MSShapeGroup"></path>
            <path d="M271.861,608.202 L270.681,606.634 C270.681,606.634 273.755,603.499 272.657,598.661 C272.657,598.661 274.182,602.786 271.861,608.202" id="Fill-49" fill="#FFFFFF" sketch:type="MSShapeGroup"></path>
            <path d="M386.71,570.683 C370.666,569.864 368.794,583.282 368.837,582.97 L404.581,582.97 C404.64,583.282 402.066,569.866 386.71,570.683" id="Fill-50" fill="#68797E" sketch:type="MSShapeGroup"></path>
            <path d="M386.71,570.683 C370.666,569.864 368.794,583.282 368.837,582.97 L404.581,582.97 C404.64,583.282 402.066,569.866 386.71,570.683 L386.71,570.683 Z" id="Stroke-51" stroke="#1A1918" stroke-width="3" sketch:type="MSShapeGroup"></path>
            <path d="M395.028,573.997 L393.461,575.175 C393.461,575.175 390.326,572.103 385.488,573.2 C385.488,573.2 389.612,571.675 395.028,573.997" id="Fill-52" fill="#FFFFFF" sketch:type="MSShapeGroup"></path>
            <path d="M371.071,222.748 L370.906,218.506 C370.906,218.506 371.705,219.649 373.586,218.409 C373.586,218.409 374.009,219.426 374.512,220.823 C374.512,220.823 374.009,222.102 371.071,222.748" id="Fill-53" fill="#FFFFFF" sketch:type="MSShapeGroup"></path>
            <path d="M377.091,218.273 L376.247,216.502 C376.247,216.502 379.882,214.04 379.768,209.082 C379.768,209.082 380.443,213.425 377.091,218.273" id="Fill-54" fill="#FFFFFF" sketch:type="MSShapeGroup"></path>
            <path d="M152.931,395.024 L156.466,395.024 C156.326,396.351 156.189,397.651 156.05,398.987 L152.895,398.987 L152.895,410.583 L148.587,410.583 L148.587,399.005 L145.714,399.005 L145.714,395.029 L148.578,395.029 C148.578,394.839 148.573,394.682 148.58,394.525 C148.625,393.29 148.578,392.043 148.742,390.824 C149.016,388.77 150.143,387.712 152.213,387.541 C153.568,387.429 154.936,387.485 156.299,387.468 C156.333,387.468 156.368,387.491 156.424,387.509 L156.424,391.436 C156.058,391.436 155.711,391.429 155.365,391.437 C154.865,391.448 154.364,391.445 153.867,391.494 C153.258,391.553 152.961,391.855 152.939,392.466 C152.91,393.3 152.931,394.135 152.931,395.024" id="Fill-55" fill="#FFFFFF" sketch:type="MSShapeGroup"></path>
            <path d="M277.508,242.981 L280.684,242.981 C280.559,244.174 280.436,245.342 280.31,246.543 L277.475,246.543 L277.475,256.967 L273.602,256.967 L273.602,246.56 L271.019,246.56 L271.019,242.986 L273.594,242.986 C273.594,242.816 273.591,242.674 273.595,242.533 C273.636,241.423 273.594,240.302 273.742,239.206 C273.988,237.359 275.002,236.409 276.862,236.255 C278.08,236.154 279.309,236.205 280.534,236.19 C280.565,236.189 280.596,236.21 280.647,236.227 L280.647,239.756 C280.318,239.756 280.007,239.75 279.695,239.757 C279.246,239.767 278.795,239.764 278.348,239.808 C277.8,239.861 277.533,240.133 277.514,240.683 C277.488,241.431 277.508,242.182 277.508,242.981" id="Fill-56" fill="#000000" sketch:type="MSShapeGroup"></path>
            <path d="M424.512,279.79 C423.493,278.047 422.81,276.166 422.571,274.145 C422.437,273.006 422.661,272.019 423.547,271.195 C424.638,270.178 425.663,269.091 426.723,268.041 C427.585,267.188 428.417,267.31 428.989,268.384 C429.899,270.091 430.798,271.805 431.692,273.517 C432.106,274.313 432.015,274.941 431.395,275.608 C431.092,275.933 430.797,276.27 430.45,276.543 C429.94,276.944 429.917,277.426 430.209,277.907 C430.858,278.976 431.462,280.103 432.264,281.055 C433.603,282.641 435.1,284.092 436.935,285.136 C436.967,285.154 436.997,285.172 437.028,285.19 C438.437,285.99 438.563,285.968 439.694,284.818 C439.893,284.614 440.089,284.411 440.291,284.208 C440.993,283.517 441.748,283.419 442.612,283.923 C444.235,284.876 445.857,285.829 447.471,286.793 C448.509,287.413 448.606,288.197 447.76,289.04 C446.643,290.155 445.512,291.263 444.396,292.379 C443.808,292.971 443.104,293.233 442.417,293.215 C439.996,293.093 437.905,292.342 435.943,291.217 C431.103,288.442 427.321,284.597 424.512,279.79" id="Fill-57" fill="#FFFFFF" sketch:type="MSShapeGroup"></path>
            <path d="M209.235,211.3 C209.285,210.999 212.592,210.909 212.592,210.909 L212.592,221.878 L209.4,221.878 C209.4,221.878 208.313,216.941 209.235,211.3" id="Fill-58" fill="#FFFFFF" sketch:type="MSShapeGroup"></path>
            <path d="M209.235,211.3 C209.285,210.999 212.592,210.909 212.592,210.909 L212.592,221.878 L209.4,221.878 C209.4,221.878 208.313,216.941 209.235,211.3 L209.235,211.3 Z" id="Stroke-59" stroke="#0B0A0B" stroke-width="2" sketch:type="MSShapeGroup"></path>
            <path d="M348.858,176.532 C349.45,176.575 349.659,178.506 349.659,178.506 L327.273,178.506 L327.953,176.824 C327.953,176.824 339.941,175.869 348.858,176.532" id="Fill-60" fill="#FFFFFF" sketch:type="MSShapeGroup"></path>
            <path d="M348.858,176.532 C349.45,176.575 349.659,178.506 349.659,178.506 L327.273,178.506 L327.953,176.824 C327.953,176.824 339.941,175.869 348.858,176.532 L348.858,176.532 Z" id="Stroke-61" stroke="#0B0A0B" stroke-width="2" sketch:type="MSShapeGroup"></path>
            <path d="M209.235,231.342 C209.285,231.04 212.592,230.95 212.592,230.95 L212.592,241.92 L209.4,241.92 C209.4,241.92 208.313,236.983 209.235,231.342" id="Fill-62" fill="#FFFFFF" sketch:type="MSShapeGroup"></path>
            <path d="M209.235,231.342 C209.285,231.04 212.592,230.95 212.592,230.95 L212.592,241.92 L209.4,241.92 C209.4,241.92 208.313,236.983 209.235,231.342 L209.235,231.342 Z" id="Stroke-63" stroke="#0B0A0B" stroke-width="2" sketch:type="MSShapeGroup"></path>
            <path d="M300.003,577.441 C302.682,577.964 360.325,587.792 275.209,598.888 L275.209,601.272 C275.209,601.272 365.347,590.995 301.323,574.313 L300.003,577.441" id="Fill-64" fill="#4B575A" sketch:type="MSShapeGroup"></path>
            <path d="M300.003,577.441 C302.682,577.964 360.325,587.792 275.209,598.888 L275.209,601.272 C275.209,601.272 365.347,590.995 301.323,574.313 L300.003,577.441 L300.003,577.441 Z" id="Stroke-65" stroke="#1A1918" stroke-width="2" sketch:type="MSShapeGroup"></path>
            <path d="M256.663,599.882 C256.663,609.753 259.001,617.755 261.883,617.755 C264.764,617.755 267.101,609.753 267.101,599.882 C267.101,590.013 264.764,582.009 261.883,582.009 C259.001,582.009 256.663,590.013 256.663,599.882" id="Fill-66" fill="#68797E" sketch:type="MSShapeGroup"></path>
            <path d="M256.663,599.882 C256.663,609.753 259.001,617.755 261.883,617.755 C264.764,617.755 267.101,609.753 267.101,599.882 C267.101,590.013 264.764,582.009 261.883,582.009 C259.001,582.009 256.663,590.013 256.663,599.882 L256.663,599.882 Z" id="Stroke-67" stroke="#0B0A0C" stroke-width="2" sketch:type="MSShapeGroup"></path>
            <path d="M247.403,593.263 L247.963,591.991 L264.085,592.112 L264.085,593.638 L247.403,593.263" id="Fill-68" fill="#FFFFFF" sketch:type="MSShapeGroup"></path>
            <path d="M247.403,593.263 L247.963,591.991 L264.085,592.112 L264.085,593.638 L247.403,593.263 L247.403,593.263 Z" id="Stroke-69" stroke="#1A1918" sketch:type="MSShapeGroup"></path>
            <path d="M263.25,594.124 C263.25,594.124 245.597,592.187 247.267,594.124 C248.936,596.06 259.285,595.981 259.285,595.981 L263.25,594.124" id="Fill-70" fill="#FFFFFF" sketch:type="MSShapeGroup"></path>
            <path d="M263.25,594.124 C263.25,594.124 245.597,592.187 247.267,594.124 C248.936,596.06 259.285,595.981 259.285,595.981 L263.25,594.124 L263.25,594.124 Z" id="Stroke-71" stroke="#1A1918" sketch:type="MSShapeGroup"></path>
            <path d="M248.075,604.704 L248.634,603.433 L264.757,603.554 L264.757,605.079 L248.075,604.704" id="Fill-72" fill="#FFFFFF" sketch:type="MSShapeGroup"></path>
            <path d="M248.075,604.704 L248.634,603.433 L264.757,603.554 L264.757,605.079 L248.075,604.704 L248.075,604.704 Z" id="Stroke-73" stroke="#1A1918" sketch:type="MSShapeGroup"></path>
            <path d="M263.922,605.565 C263.922,605.565 246.269,603.628 247.939,605.565 C249.608,607.501 259.957,607.421 259.957,607.421 L263.922,605.565" id="Fill-74" fill="#FFFFFF" sketch:type="MSShapeGroup"></path>
            <path d="M263.922,605.565 C263.922,605.565 246.269,603.628 247.939,605.565 C249.608,607.501 259.957,607.421 259.957,607.421 L263.922,605.565 L263.922,605.565 Z" id="Stroke-75" stroke="#1A1918" sketch:type="MSShapeGroup"></path>
            <path d="M280.409,571.3 C281.32,571.358 282.113,571.435 282.893,571.452 C284.265,571.483 285.269,571.103 285.336,570.532 C285.412,569.878 285.421,569.218 285.476,568.56 C285.535,567.864 286.742,567.454 288.389,567.56 C289.991,567.661 291.221,568.214 291.175,568.882 C291.112,569.798 291.22,570.745 290.729,571.608 C289.897,573.067 286.428,573.817 282.212,573.575 C278.474,573.362 274.731,573.11 270.996,572.862 C269.215,572.745 268.002,572.21 268.048,571.593 C268.092,570.989 269.401,570.622 271.176,570.724 C272.461,570.798 273.744,570.884 275.14,570.972 C275.182,570.294 275.225,569.653 275.265,569.011 C275.285,568.687 275.296,568.366 275.33,568.044 C275.397,567.417 276.525,567.04 278.033,567.138 C279.551,567.237 280.609,567.739 280.589,568.384 C280.561,569.218 280.489,570.046 280.436,570.876 C280.427,571.009 280.419,571.144 280.409,571.3" id="Fill-76" fill="#FFFFFF" sketch:type="MSShapeGroup"></path>
            <path d="M292.442,560.624 L290.817,566.222 C290.817,566.222 308.753,582.132 329.864,577.566 L331.49,571.968" id="Fill-77" fill="#4B575A" sketch:type="MSShapeGroup"></path>
            <path d="M292.442,560.624 L290.817,566.222 C290.817,566.222 308.753,582.132 329.864,577.566 L331.49,571.968" id="Stroke-78" stroke="#1A1918" stroke-width="2" sketch:type="MSShapeGroup"></path>
            <path d="M331.399,571.942 C330.272,575.812 320.645,576.415 309.885,573.29 C299.128,570.167 291.32,564.495 292.442,560.624 C293.564,556.751 303.2,556.153 313.956,559.278 C324.714,562.403 332.526,568.075 331.399,571.942" id="Fill-79" fill="#68797E" sketch:type="MSShapeGroup"></path>
            <path d="M331.399,571.942 C330.272,575.812 320.645,576.415 309.885,573.29 C299.128,570.167 291.32,564.495 292.442,560.624 C293.564,556.751 303.2,556.153 313.956,559.278 C324.714,562.403 332.526,568.075 331.399,571.942 L331.399,571.942 Z" id="Stroke-80" stroke="#4B575A" stroke-width="2" sketch:type="MSShapeGroup"></path>
            <path d="M405.567,586.54 C405.567,593.294 397.138,598.769 386.745,598.769 C376.349,598.769 367.923,593.294 367.923,586.54 C367.923,579.786 376.349,574.313 386.745,574.313 C397.138,574.313 405.567,579.786 405.567,586.54" id="Fill-81" fill="#68797E" sketch:type="MSShapeGroup"></path>
            <path d="M405.567,586.54 C405.567,593.294 397.138,598.769 386.745,598.769 C376.349,598.769 367.923,593.294 367.923,586.54 C367.923,579.786 376.349,574.313 386.745,574.313 C397.138,574.313 405.567,579.786 405.567,586.54 L405.567,586.54 Z" id="Stroke-82" stroke="#1A1918" stroke-width="3" sketch:type="MSShapeGroup"></path>
            <path d="M378.425,602.839 L377.19,602.198 L378.351,586.118 L379.875,586.216 L378.425,602.839" id="Fill-83" fill="#FFFFFF" sketch:type="MSShapeGroup"></path>
            <path d="M378.425,602.839 L377.19,602.198 L378.351,586.118 L379.875,586.216 L378.425,602.839 L378.425,602.839 Z" id="Stroke-84" stroke="#1A1918" sketch:type="MSShapeGroup"></path>
            <path d="M380.304,587.081 C380.304,587.081 377.234,604.571 379.274,603.03 C381.315,601.489 381.903,591.157 381.903,591.157 L380.304,587.081" id="Fill-85" fill="#FFFFFF" sketch:type="MSShapeGroup"></path>
            <path d="M380.304,587.081 C380.304,587.081 377.234,604.571 379.274,603.03 C381.315,601.489 381.903,591.157 381.903,591.157 L380.304,587.081 L380.304,587.081 Z" id="Stroke-86" stroke="#1A1918" sketch:type="MSShapeGroup"></path>
            <path d="M392.381,602.839 L391.146,602.198 L392.307,586.118 L393.831,586.216 L392.381,602.839" id="Fill-87" fill="#FFFFFF" sketch:type="MSShapeGroup"></path>
            <path d="M392.381,602.839 L391.146,602.198 L392.307,586.118 L393.831,586.216 L392.381,602.839 L392.381,602.839 Z" id="Stroke-88" stroke="#1A1918" sketch:type="MSShapeGroup"></path>
            <path d="M394.26,587.081 C394.26,587.081 391.19,604.571 393.23,603.03 C395.271,601.489 395.859,591.157 395.859,591.157 L394.26,587.081" id="Fill-89" fill="#FFFFFF" sketch:type="MSShapeGroup"></path>
            <path d="M394.26,587.081 C394.26,587.081 391.19,604.571 393.23,603.03 C395.271,601.489 395.859,591.157 395.859,591.157 L394.26,587.081 L394.26,587.081 Z" id="Stroke-90" stroke="#1A1918" sketch:type="MSShapeGroup"></path>
            <path d="M300.532,559.73 C304.9,561.716 309.008,563.595 313.212,565.507 C311.161,566.524 309.149,567.52 307.016,568.577 C304.825,565.585 302.728,562.718 300.532,559.73" id="Fill-91" fill="#FFFEFD" sketch:type="MSShapeGroup"></path>
            <path d="M321.775,570.687 C318.701,569.29 315.903,568.017 313.036,566.708 C313.668,566.388 314.273,566.081 314.923,565.753 C313.606,565.149 312.353,564.571 311.021,563.962 C312.425,563.265 313.8,562.583 315.293,561.845 C317.476,564.831 319.581,567.694 321.775,570.687" id="Fill-92" fill="#FFFEFD" sketch:type="MSShapeGroup"></path>
            <path d="M314.167,561.29 C312.68,562.028 311.288,562.728 309.856,563.438 C306.923,562.101 304.068,560.798 301.02,559.411 C305.454,560.042 309.665,560.644 314.167,561.29" id="Fill-93" fill="#FFFEFD" sketch:type="MSShapeGroup"></path>
            <path d="M308.163,569.124 C309.623,568.397 311.009,567.706 312.454,566.985 C315.378,568.319 318.232,569.62 321.266,571.003 C316.844,570.372 312.612,569.761 308.163,569.124" id="Fill-94" fill="#FFFEFD" sketch:type="MSShapeGroup"></path>
            <path d="M244.079,472.591 L248.548,472.591 L248.548,522.089 L244.079,522.089 L244.079,472.591 Z" id="Fill-95" fill="#68787D" sketch:type="MSShapeGroup"></path>
            <path d="M244.079,472.591 L244.079,522.089 L248.548,522.089 L248.548,472.591" id="Stroke-96" stroke="#0B0A0B" stroke-width="3" sketch:type="MSShapeGroup"></path>
            <path d="M233.465,532.247 L233.442,543.157 C233.442,543.157 240.133,548.647 251.855,534.591 L251.503,522.052 L233.465,532.247" id="Fill-97" fill="#FFFFFF" sketch:type="MSShapeGroup"></path>
            <path d="M233.465,532.247 L233.442,543.157 C233.442,543.157 240.133,548.647 251.855,534.591 L251.503,522.052 L233.465,532.247 L233.465,532.247 Z" id="Stroke-98" stroke="#0B0A0B" stroke-width="3" sketch:type="MSShapeGroup"></path>
            <path d="M244.063,515.52 C244.063,515.52 244.143,517.478 249.638,517.687 C253.117,517.819 250.752,531.333 250.752,531.333 C250.752,531.333 244.43,539.339 237.53,540.579 C230.63,541.819 234.338,526.499 234.338,526.499 L244.063,515.52" id="Fill-99" fill="#D76781" sketch:type="MSShapeGroup"></path>
            <path d="M244.063,515.52 C244.063,515.52 244.143,517.478 249.638,517.687 C253.117,517.819 250.752,531.333 250.752,531.333 C250.752,531.333 244.43,539.339 237.53,540.579 C230.63,541.819 234.338,526.499 234.338,526.499 L244.063,515.52 L244.063,515.52 Z" id="Stroke-100" stroke="#0B0A0B" stroke-width="3" sketch:type="MSShapeGroup"></path>
            <path d="M241.624,522.11 L243.879,528.28" id="Fill-101" fill="#FFFFFF" sketch:type="MSShapeGroup"></path>
            <path d="M241.624,522.11 L243.879,528.28" id="Stroke-102" stroke="#FFFFFF" stroke-width="3" sketch:type="MSShapeGroup"></path>
            <path d="M238.721,526.276 L246.343,523.944" id="Fill-103" fill="#FFFFFF" sketch:type="MSShapeGroup"></path>
            <path d="M238.721,526.276 L246.343,523.944 L238.721,526.276 Z M244.962,519.509 C244.962,519.509 242.537,513.157 238.619,515.806 C234.701,518.454 242.468,519.937 244.962,519.509 L244.962,519.509 Z M245.728,519.806 C245.728,519.806 251.806,516.761 252.907,521.36 C254.007,525.96 247.278,521.808 245.728,519.806 L245.728,519.806 Z M245.434,518.294 L244.465,520.788 L245.434,518.294 Z" id="Stroke-104" stroke="#FFFFFF" stroke-width="3" sketch:type="MSShapeGroup"></path>
            <path d="M338.58,472.546 L343.048,472.546 L343.048,522.046 L338.58,522.046 L338.58,472.546 Z" id="Fill-105" fill="#68787D" sketch:type="MSShapeGroup"></path>
            <path d="M343.048,472.546 L343.048,522.046 L338.58,522.046 L338.58,472.546" id="Stroke-106" stroke="#0B0A0B" stroke-width="3" sketch:type="MSShapeGroup"></path>
            <path d="M353.662,532.204 L353.684,543.114 C353.684,543.114 346.994,548.605 335.27,534.546 L335.624,522.009 L353.662,532.204" id="Fill-107" fill="#FFFFFF" sketch:type="MSShapeGroup"></path>
            <path d="M353.662,532.204 L353.684,543.114 C353.684,543.114 346.994,548.605 335.27,534.546 L335.624,522.009 L353.662,532.204 L353.662,532.204 Z" id="Stroke-108" stroke="#0B0A0B" stroke-width="3" sketch:type="MSShapeGroup"></path>
            <path d="M343.063,515.476 C343.063,515.476 342.983,517.435 337.489,517.644 C334.009,517.776 336.375,531.29 336.375,531.29 C336.375,531.29 342.695,539.296 349.596,540.536 C356.498,541.774 352.789,526.456 352.789,526.456 L343.063,515.476" id="Fill-109" fill="#D76781" sketch:type="MSShapeGroup"></path>
            <path d="M343.063,515.476 C343.063,515.476 342.983,517.435 337.489,517.644 C334.009,517.776 336.375,531.29 336.375,531.29 C336.375,531.29 342.695,539.296 349.596,540.536 C356.498,541.774 352.789,526.456 352.789,526.456 L343.063,515.476 L343.063,515.476 Z" id="Stroke-110" stroke="#0B0A0B" stroke-width="3" sketch:type="MSShapeGroup"></path>
            <path d="M345.502,522.066 L343.249,528.237" id="Fill-111" fill="#FFFFFF" sketch:type="MSShapeGroup"></path>
            <path d="M345.502,522.066 L343.249,528.237" id="Stroke-112" stroke="#FFFFFF" stroke-width="3" sketch:type="MSShapeGroup"></path>
            <path d="M348.406,526.231 L340.782,523.899" id="Fill-113" fill="#FFFFFF" sketch:type="MSShapeGroup"></path>
            <path d="M348.406,526.231 L340.782,523.899 L348.406,526.231 Z M342.165,519.466 C342.165,519.466 344.589,513.114 348.508,515.763 C352.425,518.411 344.659,519.894 342.165,519.466 L342.165,519.466 Z M341.398,519.763 C341.398,519.763 335.319,516.718 334.219,521.317 C333.12,525.917 339.848,521.765 341.398,519.763 L341.398,519.763 Z M341.692,518.251 L342.662,520.743 L341.692,518.251 Z" id="Stroke-114" stroke="#FFFFFF" stroke-width="3" sketch:type="MSShapeGroup"></path>
            <path d="M173.144,312.423 C177.605,308.441 186.729,308.927 186.729,308.927 C188.291,308.794 189.417,308.09 189.417,308.09 C201.392,303.716 201.424,316.79 201.424,316.79 C205.143,338.97 192.137,334.724 192.137,334.724" id="Fill-115" fill="#FFFFFF" sketch:type="MSShapeGroup"></path>
            <path d="M173.144,312.423 C177.605,308.441 186.729,308.927 186.729,308.927 C188.291,308.794 189.417,308.09 189.417,308.09 C201.392,303.716 201.424,316.79 201.424,316.79 C205.143,338.97 192.137,334.724 192.137,334.724" id="Stroke-116" stroke="#0B0A0B" stroke-width="3" sketch:type="MSShapeGroup"></path>
            <path d="M188.182,318.876 C193.92,334.482 191.817,335.492 191.817,335.492 C185.844,342.086 180.214,338.137 180.214,338.137 L175.864,326.259 C174.461,329.092 181.504,339.653 181.504,339.653 C171.683,343.359 164.225,335.734 162.435,322.93 C160.645,310.127 173.626,312.027 173.626,312.027" id="Fill-117" fill="#FFFFFF" sketch:type="MSShapeGroup"></path>
            <path d="M188.182,318.876 C193.92,334.482 191.817,335.492 191.817,335.492 C185.844,342.086 180.214,338.137 180.214,338.137 L175.864,326.259 C174.461,329.092 181.504,339.653 181.504,339.653 C171.683,343.359 164.225,335.734 162.435,322.93 C160.645,310.127 173.626,312.027 173.626,312.027" id="Stroke-118" stroke="#0B0A0B" stroke-width="3" sketch:type="MSShapeGroup"></path>
            <path d="M397.468,197.169 C403.043,195.005 411.416,198.661 411.416,198.661 C412.925,199.085 414.227,198.821 414.227,198.821 C426.975,198.927 422.417,211.181 422.417,211.181 C418.117,233.255 407.428,224.716 407.428,224.716" id="Fill-119" fill="#FFFFFF" sketch:type="MSShapeGroup"></path>
            <path d="M397.468,197.169 C403.043,195.005 411.416,198.661 411.416,198.661 C412.925,199.085 414.227,198.821 414.227,198.821 C426.975,198.927 422.417,211.181 422.417,211.181 C418.117,233.255 407.428,224.716 407.428,224.716" id="Stroke-120" stroke="#0B0A0B" stroke-width="3" sketch:type="MSShapeGroup"></path>
            <path d="M409.287,208.487 C409.182,225.115 406.859,225.322 406.859,225.322 C398.952,229.401 395.065,223.728 395.065,223.728 L395.16,211.079 C392.851,213.239 395.74,225.6 395.74,225.6 C385.245,225.625 380.938,215.867 383.753,203.249 C386.57,190.632 398.058,196.966 398.058,196.966" id="Fill-121" fill="#FFFFFF" sketch:type="MSShapeGroup"></path>
            <path d="M409.287,208.487 C409.182,225.115 406.859,225.322 406.859,225.322 C398.952,229.401 395.065,223.728 395.065,223.728 L395.16,211.079 C392.851,213.239 395.74,225.6 395.74,225.6 C385.245,225.625 380.938,215.867 383.753,203.249 C386.57,190.632 398.058,196.966 398.058,196.966" id="Stroke-122" stroke="#0B0A0B" stroke-width="3" sketch:type="MSShapeGroup"></path>
            <g id="Group-125" transform="translate(291.000000, 236.000000)">
                <mask id="mask-2" sketch:name="Clip 124" fill="white">
                    <use xlink:href="#path-1"></use>
                </mask>
                <g id="Clip-124"></g>
                <path d="M6.407,6.872 C7.049,6.889 7.637,6.326 7.653,5.68 C7.67,5.038 7.106,4.449 6.462,4.433 C5.82,4.417 5.231,4.98 5.214,5.625 C5.198,6.268 5.76,6.856 6.407,6.872 L6.407,6.872 Z M7.614,16.699 L7.614,8.175 L5.241,8.175 L5.241,16.699 L7.614,16.699 L7.614,16.699 Z M11.36,16.721 L11.36,15.906 C11.361,14.576 11.344,13.243 11.37,11.912 C11.384,11.121 11.899,10.597 12.583,10.592 C13.266,10.586 13.774,11.109 13.815,11.896 C13.839,12.355 13.821,12.816 13.821,13.278 C13.822,14.419 13.821,15.56 13.821,16.699 L16.247,16.699 C16.247,14.673 16.282,12.683 16.22,10.696 C16.206,10.22 15.941,9.703 15.661,9.295 C14.679,7.871 13.161,7.756 11.944,8.971 C11.789,9.127 11.676,9.324 11.544,9.502 C11.492,9.469 11.44,9.438 11.387,9.406 C11.368,8.992 11.348,8.579 11.328,8.17 L8.956,8.17 L8.956,16.721 L11.36,16.721 L11.36,16.721 Z M17.362,20.43 L2.893,20.43 C1.598,19.981 0.725,19.108 0.277,17.813 L0.277,3.344 C0.725,2.048 1.598,1.175 2.893,0.727 L17.362,0.727 C18.659,1.175 19.531,2.048 19.979,3.344 L19.979,17.813 C19.531,19.108 18.659,19.981 17.362,20.43 L17.362,20.43 Z" id="Fill-123" sketch:type="MSShapeGroup" mask="url(#mask-2)"></path>
            </g>
            <path d="M339.636,242.902 C339.869,242.902 340.099,242.905 340.33,242.902 C341.318,242.891 341.556,242.658 341.565,241.682 C341.569,241.144 341.566,240.606 341.561,240.066 C341.556,239.473 341.233,239.163 340.659,239.138 C340.07,239.113 339.48,239.118 338.889,239.127 C337.945,239.144 337.704,239.388 337.691,240.314 C337.688,240.519 337.691,240.724 337.691,240.929 C337.691,242.902 337.691,242.902 339.636,242.902 L339.636,242.902 Z M338.016,246.59 C338.041,244.509 336.338,242.83 334.194,242.82 C332.098,242.81 330.366,244.452 330.329,246.486 C330.291,248.524 332.05,250.258 334.167,250.266 C336.258,250.276 337.992,248.618 338.016,246.59 L338.016,246.59 Z M328.408,245.087 C327.989,245.087 327.633,245.108 327.28,245.082 C326.841,245.048 326.699,245.232 326.701,245.659 C326.715,248.094 326.712,250.528 326.707,252.963 C326.706,253.669 327.036,253.973 327.746,253.972 C332,253.961 336.254,253.969 340.508,253.963 C341.337,253.962 341.565,253.738 341.571,252.92 C341.581,251.357 341.574,249.793 341.574,248.23 L341.574,245.149 L340.017,245.149 C340.095,248.166 339.881,249.063 338.82,250.334 C337.57,251.829 335.948,252.533 334.028,252.501 C330.752,252.445 327.516,249.639 328.408,245.087 L328.408,245.087 Z M343.743,246.658 C343.743,248.888 343.752,251.119 343.742,253.35 C343.734,255.285 342.858,256.156 340.911,256.159 C336.397,256.166 331.884,256.166 327.372,256.158 C325.475,256.154 324.586,255.271 324.583,253.384 C324.573,248.846 324.573,244.308 324.583,239.77 C324.586,237.883 325.476,237.003 327.375,237 C331.913,236.991 336.451,236.99 340.991,237.001 C342.838,237.004 343.729,237.896 343.74,239.734 C343.753,242.042 343.743,244.349 343.743,246.658 L343.743,246.658 Z" id="Fill-126" fill="#000000" sketch:type="MSShapeGroup"></path>
            <path d="M238.593,252.66 C240.691,252.749 242.493,252.323 244.179,251.029 C242.425,250.778 241.265,249.941 240.608,248.339 C241.144,248.298 241.597,248.265 242.264,248.214 C240.33,247.497 239.344,246.283 239.193,244.348 C239.71,244.48 240.151,244.593 240.594,244.707 C239.255,243.141 238.814,241.504 239.77,239.52 C241.964,241.998 244.603,243.386 247.897,243.599 C247.668,241.966 248.068,240.635 249.317,239.637 C250.675,238.552 252.55,238.409 253.924,239.463 C254.583,239.97 255.111,239.942 255.759,239.681 C256.17,239.516 256.576,239.343 256.982,239.173 C257.032,239.22 257.082,239.267 257.133,239.315 C256.687,239.916 256.24,240.516 255.753,241.173 C256.33,241.031 256.903,240.889 257.569,240.724 C257.365,240.995 257.254,241.253 257.06,241.379 C255.795,242.197 255.768,243.483 255.558,244.802 C254.202,253.276 245.608,256.497 239.177,253.051 C239.012,252.963 238.865,252.843 238.593,252.66" id="Fill-127" fill="#000000" sketch:type="MSShapeGroup"></path>
        </g>
    </g>
</svg>