<?xml version="1.0" encoding="UTF-8" standalone="no"?>
<svg width="748px" height="988px" viewBox="0 0 748 988" version="1.1" xmlns="http://www.w3.org/2000/svg" xmlns:xlink="http://www.w3.org/1999/xlink" xmlns:sketch="http://www.bohemiancoding.com/sketch/ns">
    <!-- Generator: Sketch 3.2.2 (9983) - http://www.bohemiancoding.com/sketch -->
    <title>Fill 12 + Fill 13 + Fill 14</title>
    <desc>Created with Sketch.</desc>
    <defs></defs>
    <g id="Page-1" stroke="none" stroke-width="1" fill="none" fill-rule="evenodd" sketch:type="MSPage">
        <g id="iTunesArtwork@2x" sketch:type="MSArtboardGroup" transform="translate(-138.000000, -18.000000)" fill="#FFFFFF">
            <g id="Fill-12-+-Fill-13-+-Fill-14" sketch:type="MSLayerGroup" transform="translate(138.000000, 18.000000)">
                <path d="M274.476498,0.97582027 C340.791387,0.97582027 394.569896,52.999243 394.569896,117.136282 C394.569896,181.286346 340.791387,233.309769 274.476498,233.309769 C208.161609,233.309769 154.3831,181.286346 154.3831,117.136282 C154.3831,52.999243 208.161609,0.97582027 274.476498,0.97582027" id="Fill-12" sketch:type="MSShapeGroup"></path>
                <path d="M526.700777,131.229758 C562.762056,131.229758 592.017872,159.520913 592.017872,194.402918 C592.017872,229.284922 562.762056,257.576078 526.700777,257.576078 C490.639498,257.576078 461.396474,229.284922 461.396474,194.402918 C461.396474,159.520913 490.639498,131.229758 526.700777,131.229758" id="Fill-13" sketch:type="MSShapeGroup"></path>
                <path d="M585.199617,629.815781 L201.535237,629.815781 C202.046926,675.26138 211.103821,715.197237 228.539622,749.948988 C245.937046,784.674687 269.231686,810.647323 298.193281,828.153452 C327.154876,845.894038 359.27615,854.634077 394.109376,854.634077 C417.65986,854.634077 438.99729,851.872694 458.403093,846.141521 C477.77052,840.605728 496.639051,831.878714 514.816801,819.895352 C533.212019,807.925015 549.905871,795.173155 565.103033,781.405314 C580.568832,767.689574 600.422363,749.219566 624.970641,725.747806 C635.038121,717.007767 649.263074,712.527031 667.926929,712.527031 C688.01072,712.527031 704.46152,718.232154 716.959523,729.499119 C729.227266,740.727009 735.572209,756.422608 735.572209,776.924578 C735.572209,794.912647 728.498109,816.17009 714.772053,840.410347 C700.764567,864.377072 679.951619,887.588324 651.706389,909.809645 C623.717003,932.096094 588.640725,950.540052 546.234503,965.037315 C503.764319,979.769035 454.923608,987.02418 400.019383,987.02418 C273.91364,987.02418 175.771698,950.540052 105.887779,877.350364 C35.952691,804.186727 0.876413072,704.763897 0.876413072,579.355405 C0.876413072,520.415499 9.44720309,465.435311 26.8702121,414.987961 C44.0245843,364.527586 69.3276032,321.296304 102.178034,285.098735 C108.702068,278.038971 115.44357,271.356944 122.543255,264.935425 C146.04257,272.893941 171.307212,279.771349 197.978999,285.411344 C205.92297,348.949215 224.420526,415.834612 253.305367,447.942208 C281.90878,479.593914 317.739799,496.878612 361.041477,499.679072 L361.041477,629.763679 L386.945731,629.763679 L386.945731,499.705122 C432.140658,496.96979 468.96947,479.880473 497.649636,448.463223 C527.941623,415.508977 545.901905,351.710598 551.313016,285.176887 C564.732058,282.324326 577.754542,279.133104 590.406052,275.66835 C606.140487,271.435097 621.427195,266.706879 636.099876,261.483696 C665.112639,287.104645 688.47124,316.633213 706.150094,350.303856 C733.435907,402.470558 747.123587,455.705342 747.123587,509.904006 C747.123587,560.116899 732.924218,592.589205 704.69178,607.568408 C676.484927,622.326179 636.483642,629.815781 585.199617,629.815781" id="Fill-14" sketch:type="MSShapeGroup"></path>
            </g>
        </g>
    </g>
</svg>