<?xml version="1.0" encoding="UTF-8" standalone="no"?>
<svg width="494px" height="402px" viewBox="0 0 494 402" version="1.1" xmlns="http://www.w3.org/2000/svg" xmlns:xlink="http://www.w3.org/1999/xlink" xmlns:sketch="http://www.bohemiancoding.com/sketch/ns">
    <!-- Generator: Sketch 3.2.2 (9983) - http://www.bohemiancoding.com/sketch -->
    <title>Untitled</title>
    <desc>Created with Sketch.</desc>
    <defs></defs>
    <g id="Page-1" stroke="none" stroke-width="1" fill="none" fill-rule="evenodd" sketch:type="MSPage">
        <g id="cheers2" sketch:type="MSLayerGroup" transform="translate(1.000000, 2.000000)">
            <path d="M48.337,53.744 L39.075,71.248 C39.075,71.248 36.262,75.88 37.586,81.408 L37.348,302.522 C37.348,302.522 37.586,315.421 40.232,316.341 L56.771,322.791" id="Fill-6" fill="#707D81" sketch:type="MSShapeGroup"></path>
            <path d="M48.337,53.744 L39.075,71.248 C39.075,71.248 36.262,75.88 37.586,81.408 L37.348,302.522 C37.348,302.522 37.586,315.421 40.232,316.341 L56.771,322.791" id="Stroke-7" stroke="#0B0B0A" stroke-width="3" sketch:type="MSShapeGroup"></path>
            <path d="M42.275,158.477 L38.397,158.477 L38.397,147.739 L42.275,147.739 C42.275,147.739 46.599,153.406 42.275,158.477" id="Fill-8" fill="#FFFFFF" sketch:type="MSShapeGroup"></path>
            <path d="M42.275,158.477 L38.397,158.477 L38.397,147.739 L42.275,147.739 C42.275,147.739 46.599,153.406 42.275,158.477 L42.275,158.477 Z" id="Stroke-9" stroke="#0A0B09" sketch:type="MSShapeGroup"></path>
            <path d="M41.081,153.108 C41.081,156.073 39.88,158.477 38.397,158.477 C36.915,158.477 35.713,156.073 35.713,153.108 C35.713,150.143 36.915,147.739 38.397,147.739 C39.88,147.739 41.081,150.143 41.081,153.108" id="Fill-10" fill="#FFFFFF" sketch:type="MSShapeGroup"></path>
            <path d="M41.081,153.108 C41.081,156.073 39.88,158.477 38.397,158.477 C36.915,158.477 35.713,156.073 35.713,153.108 C35.713,150.143 36.915,147.739 38.397,147.739 C39.88,147.739 41.081,150.143 41.081,153.108 L41.081,153.108 Z" id="Stroke-11" stroke="#0A0B09" sketch:type="MSShapeGroup"></path>
            <path d="M190.385,311.507 C190.385,317.738 185.501,322.791 179.478,322.791 L56.771,322.791 C50.746,322.791 45.863,317.738 45.863,311.507 L45.863,61.391 C45.863,55.16 50.746,50.108 56.771,50.108 L179.478,50.108 C185.501,50.108 190.385,55.16 190.385,61.391 L190.385,311.507" id="Fill-12" fill="#FFFFFF" sketch:type="MSShapeGroup"></path>
            <path d="M190.385,311.507 C190.385,317.738 185.501,322.791 179.478,322.791 L56.771,322.791 C50.746,322.791 45.863,317.738 45.863,311.507 L45.863,61.391 C45.863,55.16 50.746,50.108 56.771,50.108 L179.478,50.108 C185.501,50.108 190.385,55.16 190.385,61.391 L190.385,311.507 L190.385,311.507 Z" id="Stroke-13" stroke="#0B0B0A" stroke-width="3" sketch:type="MSShapeGroup"></path>
            <path d="M183.113,272.243 C183.113,278.267 178.23,283.15 172.206,283.15 L67.678,283.15 C61.654,283.15 56.771,278.267 56.771,272.243 L56.771,96.817 C56.771,90.793 61.654,85.91 67.678,85.91 L172.206,85.91 C178.23,85.91 183.113,90.793 183.113,96.817 L183.113,272.243" id="Fill-14" fill="#EA8853" sketch:type="MSShapeGroup"></path>
            <path d="M136.758,301.885 C136.758,309.918 130.246,316.428 122.215,316.428 C114.183,316.428 107.671,309.918 107.671,301.885 C107.671,293.852 114.183,287.342 122.215,287.342 C130.246,287.342 136.758,293.852 136.758,301.885" id="Fill-15" fill="#FFFFFF" sketch:type="MSShapeGroup"></path>
            <path d="M136.758,301.885 C136.758,309.918 130.246,316.428 122.215,316.428 C114.183,316.428 107.671,309.918 107.671,301.885 C107.671,293.852 114.183,287.342 122.215,287.342 C130.246,287.342 136.758,293.852 136.758,301.885 L136.758,301.885 Z" id="Stroke-16" stroke="#0B0B0A" stroke-width="3" sketch:type="MSShapeGroup"></path>
            <path d="M43.591,119.642 C43.591,120.898 42.573,121.915 41.319,121.915 C40.063,121.915 39.046,120.898 39.046,119.642 L39.046,100.554 C39.046,99.299 40.063,98.282 41.319,98.282 C42.573,98.282 43.591,99.299 43.591,100.554 L43.591,119.642" id="Fill-17" fill="#FFFFFF" sketch:type="MSShapeGroup"></path>
            <path d="M43.591,119.642 C43.591,120.898 42.573,121.915 41.319,121.915 C40.063,121.915 39.046,120.898 39.046,119.642 L39.046,100.554 C39.046,99.299 40.063,98.282 41.319,98.282 C42.573,98.282 43.591,99.299 43.591,100.554 L43.591,119.642 L43.591,119.642 Z" id="Stroke-18" stroke="#1A1918" sketch:type="MSShapeGroup"></path>
            <path d="M41.82,143.416 L37.943,143.416 L37.943,132.68 L41.82,132.68 C41.82,132.68 46.145,138.347 41.82,143.416" id="Fill-19" fill="#FFFFFF" sketch:type="MSShapeGroup"></path>
            <path d="M41.82,143.416 L37.943,143.416 L37.943,132.68 L41.82,132.68 C41.82,132.68 46.145,138.347 41.82,143.416 L41.82,143.416 Z" id="Stroke-20" stroke="#0A0B09" sketch:type="MSShapeGroup"></path>
            <path d="M40.627,138.048 C40.627,141.013 39.425,143.416 37.943,143.416 C36.46,143.416 35.259,141.013 35.259,138.048 C35.259,135.083 36.46,132.68 37.943,132.68 C39.425,132.68 40.627,135.083 40.627,138.048" id="Fill-21" fill="#FFFFFF" sketch:type="MSShapeGroup"></path>
            <path d="M40.627,138.048 C40.627,141.013 39.425,143.416 37.943,143.416 C36.46,143.416 35.259,141.013 35.259,138.048 C35.259,135.083 36.46,132.68 37.943,132.68 C39.425,132.68 40.627,135.083 40.627,138.048 L40.627,138.048 Z" id="Stroke-22" stroke="#0A0B09" sketch:type="MSShapeGroup"></path>
            <path d="M37.943,135.364 L37.943,140.732" id="Fill-23" fill="#FFFFFF" sketch:type="MSShapeGroup"></path>
            <path d="M37.943,135.364 L37.943,140.732" id="Stroke-24" stroke="#0A0B09" sketch:type="MSShapeGroup"></path>
            <path d="M36.428,138.048 L39.306,138.048" id="Fill-25" fill="#FFFFFF" sketch:type="MSShapeGroup"></path>
            <path d="M36.428,138.048 L39.306,138.048 M37.488,153.108 L39.306,153.108" id="Stroke-26" stroke="#0A0B09" sketch:type="MSShapeGroup"></path>
            <path d="M89.53,64.434 C89.53,65.96 88.293,67.198 86.766,67.198 C85.24,67.198 84.002,65.96 84.002,64.434 C84.002,62.907 85.24,61.669 86.766,61.669 C88.293,61.669 89.53,62.907 89.53,64.434" id="Fill-27" fill="#0A0B09" sketch:type="MSShapeGroup"></path>
            <path d="M89.53,64.434 C89.53,65.96 88.293,67.198 86.766,67.198 C85.24,67.198 84.002,65.96 84.002,64.434 C84.002,62.907 85.24,61.669 86.766,61.669 C88.293,61.669 89.53,62.907 89.53,64.434 L89.53,64.434 Z" id="Stroke-28" stroke="#0C0D0B" stroke-width="3" sketch:type="MSShapeGroup"></path>
            <path d="M154.103,64.434 C154.103,65.96 152.865,67.198 151.339,67.198 C149.812,67.198 148.574,65.96 148.574,64.434 C148.574,62.907 149.812,61.669 151.339,61.669 C152.865,61.669 154.103,62.907 154.103,64.434" id="Fill-29" fill="#0A0B09" sketch:type="MSShapeGroup"></path>
            <path d="M154.103,64.434 C154.103,65.96 152.865,67.198 151.339,67.198 C149.812,67.198 148.574,65.96 148.574,64.434 C148.574,62.907 149.812,61.669 151.339,61.669 C152.865,61.669 154.103,62.907 154.103,64.434 L154.103,64.434 Z" id="Stroke-30" stroke="#0C0D0B" stroke-width="3" sketch:type="MSShapeGroup"></path>
            <path d="M4.465,200.616 C4.465,200.616 -3.627,209.892 3.873,218.971 C3.873,218.971 10.583,226.075 18.872,218.971 C18.872,218.971 23.214,214.628 18.872,211.076 C18.872,211.076 22.772,207.326 22.7,203.553 C22.7,203.553 15.813,187.888 4.465,200.616" id="Fill-31" fill="#FFFFFF" sketch:type="MSShapeGroup"></path>
            <path d="M4.465,200.616 C4.465,200.616 -3.627,209.892 3.873,218.971 C3.873,218.971 10.583,226.075 18.872,218.971 C18.872,218.971 23.214,214.628 18.872,211.076 C18.872,211.076 22.772,207.326 22.7,203.553 C22.7,203.553 15.813,187.888 4.465,200.616 L4.465,200.616 Z" id="Stroke-32" stroke="#0B0B0A" stroke-width="3" sketch:type="MSShapeGroup"></path>
            <path d="M18.159,215.97 L18.322,206.262" id="Fill-33" fill="#FFFFFF" sketch:type="MSShapeGroup"></path>
            <path d="M18.159,215.97 L18.322,206.262" id="Stroke-34" stroke="#0B0B0A" stroke-width="3" sketch:type="MSShapeGroup"></path>
            <path d="M132.352,69.344 C131.561,66.663 129.084,64.704 126.146,64.704 C123.257,64.704 120.812,66.597 119.979,69.21 C119.233,66.458 116.725,64.433 113.738,64.433 C110.801,64.433 108.323,66.392 107.532,69.074 C100.496,74.225 97.825,70.337 97.825,70.337 C99.893,80.674 113.864,77.532 115.031,77.25 C117.336,76.783 119.236,72.435 119.942,70.227 C120.579,72.568 122.453,77.035 124.853,77.521 C126.021,77.802 139.991,80.945 142.059,70.607 C142.059,70.607 139.388,74.496 132.352,69.344" id="Fill-35" fill="#0A0B09" sketch:type="MSShapeGroup"></path>
            <path d="M132.352,69.344 C131.561,66.663 129.084,64.704 126.146,64.704 C123.257,64.704 120.812,66.597 119.979,69.21 C119.233,66.458 116.725,64.433 113.738,64.433 C110.801,64.433 108.323,66.392 107.532,69.074 C100.496,74.225 97.825,70.337 97.825,70.337 C99.893,80.674 113.864,77.532 115.031,77.25 C117.336,76.783 119.236,72.435 119.942,70.227 C120.579,72.568 122.453,77.035 124.853,77.521 C126.021,77.802 139.991,80.945 142.059,70.607 C142.059,70.607 139.388,74.496 132.352,69.344 L132.352,69.344 Z" id="Stroke-36" stroke="#0C0D0B" stroke-width="2" sketch:type="MSShapeGroup"></path>
            <path d="M153.591,3.798 C146.718,9.573 146.46,29.262 146.46,29.262 C178.134,42.968 140.948,42.533 140.948,42.533 L134.957,42.013 L128.965,41.493 C128.965,41.493 92.26,35.509 125.823,27.47 C125.823,27.47 128.965,8.031 123.191,1.158 C123.191,1.158 136.107,-2.117 153.591,3.798" id="Fill-37" fill="#0A0B09" sketch:type="MSShapeGroup"></path>
            <path d="M153.591,3.798 C146.718,9.573 146.46,29.262 146.46,29.262 C178.134,42.968 140.948,42.533 140.948,42.533 L134.957,42.013 L128.965,41.493 C128.965,41.493 92.26,35.509 125.823,27.47 C125.823,27.47 128.965,8.031 123.191,1.158 C123.191,1.158 136.107,-2.117 153.591,3.798 L153.591,3.798 Z" id="Stroke-38" stroke="#0C0D0B" stroke-width="3" sketch:type="MSShapeGroup"></path>
            <path d="M125.583,2.727 C125.583,2.727 128.52,0.579 132.083,2.529 C132.083,2.529 129.418,24.641 134.189,29.325 C137.682,32.754 126.464,32.266 126.444,31.048 C126.423,29.829 133.454,17.303 125.583,2.727" id="Fill-39" fill="#FAFAFA" sketch:type="MSShapeGroup"></path>
            <path d="M134.072,3.617 C134.072,3.617 132.249,17.601 133.988,20.336 C135.727,23.072 135.582,7.246 134.072,3.617" id="Fill-40" fill="#FAFAFA" sketch:type="MSShapeGroup"></path>
            <path d="M201.942,142.948 C201.942,142.948 206.79,161.28 190.385,161.349 C190.385,161.349 189.29,168.289 192.55,166.431 C195.809,164.572 206.79,166.431 206.79,144.03 L201.942,142.948" id="Fill-41" fill="#707D81" sketch:type="MSShapeGroup"></path>
            <path d="M201.942,142.948 C201.942,142.948 206.79,161.28 190.385,161.349 C190.385,161.349 189.29,168.289 192.55,166.431 C195.809,164.572 206.79,166.431 206.79,144.03 L201.942,142.948 L201.942,142.948 Z" id="Stroke-42" stroke="#0B0B0A" stroke-width="3" sketch:type="MSShapeGroup"></path>
            <path d="M19.913,199.257 C19.913,199.257 25.185,182.359 44.197,179.405 C44.197,179.405 43.772,174.178 40.627,176.224 C37.482,178.269 27.238,176.687 16.44,196.452 L19.913,199.257" id="Fill-43" fill="#707D81" sketch:type="MSShapeGroup"></path>
            <path d="M19.913,199.257 C19.913,199.257 25.185,182.359 44.197,179.405 C44.197,179.405 43.772,174.178 40.627,176.224 C37.482,178.269 27.238,176.687 16.44,196.452 L19.913,199.257 L19.913,199.257 Z" id="Stroke-44" stroke="#0B0B0A" stroke-width="3" sketch:type="MSShapeGroup"></path>
            <path d="M69.61,322.835 L74.155,322.835 L74.155,373.182 L69.61,373.182 L69.61,322.835 Z" id="Fill-45" fill="#707D81" sketch:type="MSShapeGroup"></path>
            <path d="M69.61,322.835 L69.61,373.182 L74.155,373.182 L74.155,322.835" id="Stroke-46" stroke="#0B0B0A" stroke-width="3" sketch:type="MSShapeGroup"></path>
            <path d="M58.813,383.514 L58.79,394.611 C58.79,394.611 65.596,400.194 77.52,385.897 L77.16,373.144 L58.813,383.514" id="Fill-47" fill="#FFFFFF" sketch:type="MSShapeGroup"></path>
            <path d="M58.813,383.514 L58.79,394.611 C58.79,394.611 65.596,400.194 77.52,385.897 L77.16,373.144 L58.813,383.514 L58.813,383.514 Z" id="Stroke-48" stroke="#0A0B09" stroke-width="3" sketch:type="MSShapeGroup"></path>
            <path d="M69.593,366.5 C69.593,366.5 69.675,368.491 75.264,368.705 C78.802,368.84 76.397,382.586 76.397,382.586 C76.397,382.586 69.968,390.727 62.948,391.989 C55.93,393.25 59.702,377.668 59.702,377.668 L69.593,366.5" id="Fill-49" fill="#E3748D" sketch:type="MSShapeGroup"></path>
            <path d="M69.593,366.5 C69.593,366.5 69.675,368.491 75.264,368.705 C78.802,368.84 76.397,382.586 76.397,382.586 C76.397,382.586 69.968,390.727 62.948,391.989 C55.93,393.25 59.702,377.668 59.702,377.668 L69.593,366.5 L69.593,366.5 Z" id="Stroke-50" stroke="#0B0B0A" stroke-width="3" sketch:type="MSShapeGroup"></path>
            <path d="M67.113,373.203 L69.405,379.478" id="Fill-51" fill="#FFFFFF" sketch:type="MSShapeGroup"></path>
            <path d="M67.113,373.203 L69.405,379.478" id="Stroke-52" stroke="#FFFFFF" stroke-width="3" sketch:type="MSShapeGroup"></path>
            <path d="M64.16,377.44 L71.913,375.069" id="Fill-53" fill="#FFFFFF" sketch:type="MSShapeGroup"></path>
            <path d="M64.16,377.44 L71.913,375.069 L64.16,377.44 Z M70.508,370.558 C70.508,370.558 68.041,364.098 64.056,366.791 C60.071,369.485 67.971,370.993 70.508,370.558 L70.508,370.558 Z M71.287,370.86 C71.287,370.86 77.47,367.762 78.589,372.441 C79.708,377.119 72.863,372.897 71.287,370.86 L71.287,370.86 Z M70.988,369.322 L70.002,371.857 L70.988,369.322 Z" id="Stroke-54" stroke="#FFFFFF" stroke-width="3" sketch:type="MSShapeGroup"></path>
            <path d="M165.728,322.791 L170.273,322.791 L170.273,373.138 L165.728,373.138 L165.728,322.791 Z" id="Fill-55" fill="#707D81" sketch:type="MSShapeGroup"></path>
            <path d="M170.273,322.791 L170.273,373.138 L165.728,373.138 L165.728,322.791" id="Stroke-56" stroke="#0B0B0A" stroke-width="3" sketch:type="MSShapeGroup"></path>
            <path d="M181.069,383.47 L181.092,394.567 C181.092,394.567 174.287,400.15 162.363,385.852 L162.722,373.101 L181.069,383.47" id="Fill-57" fill="#FFFFFF" sketch:type="MSShapeGroup"></path>
            <path d="M181.069,383.47 L181.092,394.567 C181.092,394.567 174.287,400.15 162.363,385.852 L162.722,373.101 L181.069,383.47 L181.069,383.47 Z" id="Stroke-58" stroke="#0A0B09" stroke-width="3" sketch:type="MSShapeGroup"></path>
            <path d="M170.289,366.455 C170.289,366.455 170.207,368.447 164.619,368.66 C161.08,368.795 163.485,382.541 163.485,382.541 C163.485,382.541 169.914,390.683 176.934,391.945 C183.953,393.205 180.181,377.624 180.181,377.624 L170.289,366.455" id="Fill-59" fill="#E3748D" sketch:type="MSShapeGroup"></path>
            <path d="M170.289,366.455 C170.289,366.455 170.207,368.447 164.619,368.66 C161.08,368.795 163.485,382.541 163.485,382.541 C163.485,382.541 169.914,390.683 176.934,391.945 C183.953,393.205 180.181,377.624 180.181,377.624 L170.289,366.455 L170.289,366.455 Z" id="Stroke-60" stroke="#0B0B0A" stroke-width="3" sketch:type="MSShapeGroup"></path>
            <path d="M172.769,373.159 L170.477,379.435" id="Fill-61" fill="#FFFFFF" sketch:type="MSShapeGroup"></path>
            <path d="M172.769,373.159 L170.477,379.435" id="Stroke-62" stroke="#FFFFFF" stroke-width="3" sketch:type="MSShapeGroup"></path>
            <path d="M175.723,377.397 L167.969,375.024" id="Fill-63" fill="#FFFFFF" sketch:type="MSShapeGroup"></path>
            <path d="M175.723,377.397 L167.969,375.024 L175.723,377.397 Z M169.375,370.514 C169.375,370.514 171.841,364.054 175.826,366.747 C179.812,369.441 171.912,370.948 169.375,370.514 L169.375,370.514 Z M168.595,370.815 C168.595,370.815 162.412,367.718 161.294,372.397 C160.176,377.075 167.019,372.852 168.595,370.815 L168.595,370.815 Z M168.895,369.278 L169.881,371.813 L168.895,369.278 Z" id="Stroke-64" stroke="#FFFFFF" stroke-width="3" sketch:type="MSShapeGroup"></path>
            <path d="M443.264,55.858 L452.526,73.363 C452.526,73.363 455.339,77.994 454.016,83.523 L454.253,304.636 C454.253,304.636 454.016,317.536 451.369,318.455 L434.83,324.905" id="Fill-65" fill="#707D81" sketch:type="MSShapeGroup"></path>
            <path d="M443.264,55.858 L452.526,73.363 C452.526,73.363 455.339,77.994 454.016,83.523 L454.253,304.636 C454.253,304.636 454.016,317.536 451.369,318.455 L434.83,324.905" id="Stroke-66" stroke="#0B0B0A" stroke-width="3" sketch:type="MSShapeGroup"></path>
            <path d="M301.216,313.621 C301.216,319.852 306.1,324.905 312.123,324.905 L434.83,324.905 C440.855,324.905 445.738,319.852 445.738,313.621 L445.738,63.505 C445.738,57.274 440.855,52.222 434.83,52.222 L312.123,52.222 C306.1,52.222 301.216,57.274 301.216,63.505 L301.216,313.621" id="Fill-67" fill="#FFFFFF" sketch:type="MSShapeGroup"></path>
            <path d="M301.216,313.621 C301.216,319.852 306.1,324.905 312.123,324.905 L434.83,324.905 C440.855,324.905 445.738,319.852 445.738,313.621 L445.738,63.505 C445.738,57.274 440.855,52.222 434.83,52.222 L312.123,52.222 C306.1,52.222 301.216,57.274 301.216,63.505 L301.216,313.621 L301.216,313.621 Z" id="Stroke-68" stroke="#0B0B0A" stroke-width="3" sketch:type="MSShapeGroup"></path>
            <path d="M310.391,272.243 C310.391,278.267 315.275,283.15 321.298,283.15 L425.826,283.15 C431.85,283.15 436.734,278.267 436.734,272.243 L436.734,96.817 C436.734,90.793 431.85,85.91 425.826,85.91 L321.298,85.91 C315.275,85.91 310.391,90.793 310.391,96.817 L310.391,272.243" id="Fill-69" fill="#51B57F" sketch:type="MSShapeGroup"></path>
            <path d="M354.844,303.999 C354.844,312.032 361.356,318.542 369.387,318.542 C377.418,318.542 383.93,312.032 383.93,303.999 C383.93,295.967 377.418,289.456 369.387,289.456 C361.356,289.456 354.844,295.967 354.844,303.999" id="Fill-70" fill="#FFFFFF" sketch:type="MSShapeGroup"></path>
            <path d="M354.844,303.999 C354.844,312.032 361.356,318.542 369.387,318.542 C377.418,318.542 383.93,312.032 383.93,303.999 C383.93,295.967 377.418,289.456 369.387,289.456 C361.356,289.456 354.844,295.967 354.844,303.999 L354.844,303.999 Z" id="Stroke-71" stroke="#0B0B0A" stroke-width="3" sketch:type="MSShapeGroup"></path>
            <path d="M448.01,221.581 C448.01,223.051 449.028,224.243 450.282,224.243 C451.538,224.243 452.555,223.051 452.555,221.581 L452.555,199.222 C452.555,197.752 451.538,196.561 450.282,196.561 C449.028,196.561 448.01,197.752 448.01,199.222 L448.01,221.581" id="Fill-72" fill="#707D81" sketch:type="MSShapeGroup"></path>
            <path d="M448.01,221.581 C448.01,223.051 449.028,224.243 450.282,224.243 C451.538,224.243 452.555,223.051 452.555,221.581 L452.555,199.222 C452.555,197.752 451.538,196.561 450.282,196.561 C449.028,196.561 448.01,197.752 448.01,199.222 L448.01,221.581 L448.01,221.581 Z" id="Stroke-73" stroke="#0B0B0A" sketch:type="MSShapeGroup"></path>
            <path d="M402.071,66.548 C402.071,68.074 403.309,69.312 404.835,69.312 C406.362,69.312 407.6,68.074 407.6,66.548 C407.6,65.021 406.362,63.783 404.835,63.783 C403.309,63.783 402.071,65.021 402.071,66.548" id="Fill-74" fill="#0A0B09" sketch:type="MSShapeGroup"></path>
            <path d="M402.071,66.548 C402.071,68.074 403.309,69.312 404.835,69.312 C406.362,69.312 407.6,68.074 407.6,66.548 C407.6,65.021 406.362,63.783 404.835,63.783 C403.309,63.783 402.071,65.021 402.071,66.548 L402.071,66.548 Z" id="Stroke-75" stroke="#0C0D0B" stroke-width="3" sketch:type="MSShapeGroup"></path>
            <path d="M337.498,66.548 C337.498,68.074 338.737,69.312 340.263,69.312 C341.789,69.312 343.028,68.074 343.028,66.548 C343.028,65.021 341.789,63.783 340.263,63.783 C338.737,63.783 337.498,65.021 337.498,66.548" id="Fill-76" fill="#0A0B09" sketch:type="MSShapeGroup"></path>
            <path d="M337.498,66.548 C337.498,68.074 338.737,69.312 340.263,69.312 C341.789,69.312 343.028,68.074 343.028,66.548 C343.028,65.021 341.789,63.783 340.263,63.783 C338.737,63.783 337.498,65.021 337.498,66.548 L337.498,66.548 Z" id="Stroke-77" stroke="#0C0D0B" stroke-width="3" sketch:type="MSShapeGroup"></path>
            <path d="M487.136,202.73 C487.136,202.73 495.228,212.006 487.729,221.085 C487.729,221.085 481.018,228.189 472.73,221.085 C472.73,221.085 468.387,216.742 472.73,213.19 C472.73,213.19 468.829,209.44 468.901,205.667 C468.901,205.667 475.788,190.002 487.136,202.73" id="Fill-78" fill="#FFFFFF" sketch:type="MSShapeGroup"></path>
            <path d="M487.136,202.73 C487.136,202.73 495.228,212.006 487.729,221.085 C487.729,221.085 481.018,228.189 472.73,221.085 C472.73,221.085 468.387,216.742 472.73,213.19 C472.73,213.19 468.829,209.44 468.901,205.667 C468.901,205.667 475.788,190.002 487.136,202.73 L487.136,202.73 Z" id="Stroke-79" stroke="#0B0B0A" stroke-width="3" sketch:type="MSShapeGroup"></path>
            <path d="M473.442,218.084 L473.28,208.376" id="Fill-80" fill="#FFFFFF" sketch:type="MSShapeGroup"></path>
            <path d="M473.442,218.084 L473.28,208.376" id="Stroke-81" stroke="#0B0B0A" stroke-width="3" sketch:type="MSShapeGroup"></path>
            <path d="M289.658,145.062 C289.658,145.062 284.811,163.394 301.216,163.463 C301.216,163.463 302.312,170.404 299.052,168.545 C295.792,166.686 284.811,168.545 284.811,146.144 L289.658,145.062" id="Fill-82" fill="#707D81" sketch:type="MSShapeGroup"></path>
            <path d="M289.658,145.062 C289.658,145.062 284.811,163.394 301.216,163.463 C301.216,163.463 302.312,170.404 299.052,168.545 C295.792,166.686 284.811,168.545 284.811,146.144 L289.658,145.062 L289.658,145.062 Z" id="Stroke-83" stroke="#0B0B0A" stroke-width="3" sketch:type="MSShapeGroup"></path>
            <path d="M276.769,147.649 C276.769,147.649 283.643,153.056 287.736,148.965 C291.826,144.873 290.78,141.948 288.843,137.865" id="Fill-84" fill="#FFFFFF" sketch:type="MSShapeGroup"></path>
            <path d="M276.769,147.649 C276.769,147.649 283.643,153.056 287.736,148.965 C291.826,144.873 290.78,141.948 288.843,137.865" id="Stroke-85" stroke="#0B0B0A" stroke-width="3" sketch:type="MSShapeGroup"></path>
            <path d="M276.066,144.968 C278.265,148.744 275.18,150.455 271.684,150.323 C269.851,150.255 261.529,147.554 266.478,144.968" id="Fill-86" fill="#FFFFFF" sketch:type="MSShapeGroup"></path>
            <path d="M276.066,144.968 C278.265,148.744 275.18,150.455 271.684,150.323 C269.851,150.255 261.529,147.554 266.478,144.968" id="Stroke-87" stroke="#0B0B0A" stroke-width="3" sketch:type="MSShapeGroup"></path>
            <path d="M276.066,141.657 C278.265,145.434 275.18,147.144 271.684,147.013 C269.851,146.944 261.529,144.244 266.478,141.657" id="Fill-88" fill="#FFFFFF" sketch:type="MSShapeGroup"></path>
            <path d="M276.066,141.657 C278.265,145.434 275.18,147.144 271.684,147.013 C269.851,146.944 261.529,144.244 266.478,141.657" id="Stroke-89" stroke="#0B0B0A" stroke-width="3" sketch:type="MSShapeGroup"></path>
            <path d="M275.358,137.865 C277.557,141.642 274.471,143.352 270.976,143.221 C269.144,143.152 260.82,140.452 265.769,137.865" id="Fill-90" fill="#FFFFFF" sketch:type="MSShapeGroup"></path>
            <path d="M275.358,137.865 C277.557,141.642 274.471,143.352 270.976,143.221 C269.144,143.152 260.82,140.452 265.769,137.865" id="Stroke-91" stroke="#0B0B0A" stroke-width="3" sketch:type="MSShapeGroup"></path>
            <path d="M284.289,130.876 C284.289,130.876 275.569,124.092 265.877,130.876 C265.877,130.876 260.709,137.336 272.66,139.92 C272.66,139.92 278.17,139.129 273.543,133.891 C273.543,133.891 277.183,131.415 280.091,133.891 C280.091,133.891 275.892,136.69 278.154,139.92 C282.858,146.644 295.596,141.535 284.289,130.876" id="Fill-92" fill="#FFFFFF" sketch:type="MSShapeGroup"></path>
            <path d="M284.289,130.876 C284.289,130.876 275.569,124.092 265.877,130.876 C265.877,130.876 260.709,137.336 272.66,139.92 C272.66,139.92 278.17,139.129 273.543,133.891 C273.543,133.891 277.183,131.415 280.091,133.891 C280.091,133.891 275.892,136.69 278.154,139.92 C282.858,146.644 295.596,141.535 284.289,130.876 L284.289,130.876 Z" id="Stroke-93" stroke="#0B0B0A" stroke-width="3" sketch:type="MSShapeGroup"></path>
            <path d="M275.868,155.33 L276.096,133.742" id="Fill-94" fill="#6A797E" sketch:type="MSShapeGroup"></path>
            <path d="M275.868,155.33 L276.096,133.742" id="Stroke-95" stroke="#0A0B09" stroke-width="3" sketch:type="MSShapeGroup"></path>
            <path d="M283.481,160.556 L275.868,154.762 L267.46,160.556 L283.481,160.556" id="Fill-96" fill="#FFFFFF" sketch:type="MSShapeGroup"></path>
            <path d="M283.481,160.556 L275.868,154.762 L267.46,160.556 L283.481,160.556 L283.481,160.556 Z" id="Stroke-97" stroke="#0A0B09" stroke-width="3" sketch:type="MSShapeGroup"></path>
            <path d="M471.689,201.371 C471.689,201.371 466.416,184.474 447.405,181.519 C447.405,181.519 447.829,176.293 450.974,178.338 C454.119,180.384 464.363,178.801 475.161,198.566 L471.689,201.371" id="Fill-98" fill="#707D81" sketch:type="MSShapeGroup"></path>
            <path d="M471.689,201.371 C471.689,201.371 466.416,184.474 447.405,181.519 C447.405,181.519 447.829,176.293 450.974,178.338 C454.119,180.384 464.363,178.801 475.161,198.566 L471.689,201.371 L471.689,201.371 Z" id="Stroke-99" stroke="#0B0B0A" stroke-width="3" sketch:type="MSShapeGroup"></path>
            <path d="M417.447,324.949 L421.992,324.949 L421.992,375.296 L417.447,375.296 L417.447,324.949 Z" id="Fill-100" fill="#707D81" sketch:type="MSShapeGroup"></path>
            <path d="M421.992,324.949 L421.992,375.296 L417.447,375.296 L417.447,324.949" id="Stroke-101" stroke="#0B0B0A" stroke-width="3" sketch:type="MSShapeGroup"></path>
            <path d="M432.787,385.629 L432.811,396.726 C432.811,396.726 426.006,402.309 414.081,388.011 L414.441,375.259 L432.787,385.629" id="Fill-102" fill="#FFFFFF" sketch:type="MSShapeGroup"></path>
            <path d="M432.787,385.629 L432.811,396.726 C432.811,396.726 426.006,402.309 414.081,388.011 L414.441,375.259 L432.787,385.629 L432.787,385.629 Z" id="Stroke-103" stroke="#0A0B09" stroke-width="3" sketch:type="MSShapeGroup"></path>
            <path d="M422.008,368.937 C422.008,368.937 421.926,370.929 416.338,371.141 C412.799,371.275 415.204,385.022 415.204,385.022 C415.204,385.022 421.633,393.165 428.653,394.425 C435.67,395.686 431.9,380.105 431.9,380.105 L422.008,368.937" id="Fill-104" fill="#E3748D" sketch:type="MSShapeGroup"></path>
            <path d="M422.008,368.937 C422.008,368.937 421.926,370.929 416.338,371.141 C412.799,371.275 415.204,385.022 415.204,385.022 C415.204,385.022 421.633,393.165 428.653,394.425 C435.67,395.686 431.9,380.105 431.9,380.105 L422.008,368.937 L422.008,368.937 Z" id="Stroke-105" stroke="#0B0B0A" stroke-width="3" sketch:type="MSShapeGroup"></path>
            <path d="M424.488,375.317 L422.197,381.593" id="Fill-106" fill="#FFFFFF" sketch:type="MSShapeGroup"></path>
            <path d="M424.488,375.317 L422.197,381.593" id="Stroke-107" stroke="#FFFFFF" stroke-width="3" sketch:type="MSShapeGroup"></path>
            <path d="M427.442,379.556 L419.688,377.184" id="Fill-108" fill="#FFFFFF" sketch:type="MSShapeGroup"></path>
            <path d="M427.442,379.556 L419.688,377.184 L427.442,379.556 Z M421.094,372.673 C421.094,372.673 423.56,366.212 427.545,368.905 C431.53,371.601 423.629,373.107 421.094,372.673 L421.094,372.673 Z M420.315,372.975 C420.315,372.975 414.131,369.876 413.013,374.556 C411.894,379.233 418.738,375.011 420.315,372.975 L420.315,372.975 Z M420.613,371.436 L421.6,373.972 L420.613,371.436 Z" id="Stroke-109" stroke="#FFFFFF" stroke-width="3" sketch:type="MSShapeGroup"></path>
            <path d="M321.328,324.905 L325.873,324.905 L325.873,375.252 L321.328,375.252 L321.328,324.905 Z" id="Fill-110" fill="#707D81" sketch:type="MSShapeGroup"></path>
            <path d="M321.328,324.905 L321.328,375.252 L325.873,375.252 L325.873,324.905" id="Stroke-111" stroke="#0B0B0A" stroke-width="3" sketch:type="MSShapeGroup"></path>
            <path d="M310.532,385.263 L310.51,396.358 C310.51,396.358 317.315,401.943 329.238,387.645 L328.879,374.892 L310.532,385.263" id="Fill-112" fill="#FFFFFF" sketch:type="MSShapeGroup"></path>
            <path d="M310.532,385.263 L310.51,396.358 C310.51,396.358 317.315,401.943 329.238,387.645 L328.879,374.892 L310.532,385.263 L310.532,385.263 Z" id="Stroke-113" stroke="#0B0B0A" stroke-width="3" sketch:type="MSShapeGroup"></path>
            <path d="M321.312,368.569 C321.312,368.569 321.394,370.561 326.983,370.774 C330.522,370.909 328.115,384.655 328.115,384.655 C328.115,384.655 321.687,392.797 314.667,394.06 C307.648,395.319 311.42,379.738 311.42,379.738 L321.312,368.569" id="Fill-114" fill="#E3748D" sketch:type="MSShapeGroup"></path>
            <path d="M321.312,368.569 C321.312,368.569 321.394,370.561 326.983,370.774 C330.522,370.909 328.115,384.655 328.115,384.655 C328.115,384.655 321.687,392.797 314.667,394.06 C307.648,395.319 311.42,379.738 311.42,379.738 L321.312,368.569 L321.312,368.569 Z" id="Stroke-115" stroke="#0B0B0A" stroke-width="3" sketch:type="MSShapeGroup"></path>
            <path d="M318.832,374.95 L321.124,381.227 L318.832,374.95 Z M315.878,379.187 L323.632,376.816 L315.878,379.187 Z M322.227,372.305 C322.227,372.305 319.761,365.845 315.776,368.54 C311.789,371.232 319.69,372.741 322.227,372.305 L322.227,372.305 Z M323.006,372.608 C323.006,372.608 329.189,369.511 330.308,374.188 C331.426,378.866 324.582,374.643 323.006,372.608 L323.006,372.608 Z" id="Stroke-116" stroke="#FCFBFB" stroke-width="3" sketch:type="MSShapeGroup"></path>
            <path d="M322.706,371.071 L321.721,373.606" id="Fill-117" fill="#E3748D" sketch:type="MSShapeGroup"></path>
            <path d="M322.706,371.071 L321.721,373.606" id="Stroke-118" stroke="#FAF9F8" stroke-width="3" sketch:type="MSShapeGroup"></path>
            <path d="M353.737,69.312 C353.737,69.312 372.824,80.357 391.003,69.312" id="Fill-119" fill="#0A0B09" sketch:type="MSShapeGroup"></path>
            <path d="M353.737,69.312 C353.737,69.312 372.824,80.357 391.003,69.312" id="Stroke-120" stroke="#0C0D0B" stroke-width="3" sketch:type="MSShapeGroup"></path>
            <path d="M450.737,221.477 C450.737,221.744 450.521,221.961 450.254,221.961 C449.988,221.961 449.772,221.744 449.772,221.477 C449.772,221.212 449.988,220.995 450.254,220.995 C450.521,220.995 450.737,221.212 450.737,221.477" id="Fill-121" fill="#4A5658" sketch:type="MSShapeGroup"></path>
            <path d="M340.263,21.394 C317.378,23.727 331.012,52.222 331.012,52.222 L377.822,52.222 C376.127,45.237 373.638,40.277 370.757,36.803 C370.757,36.803 360.422,19.971 340.263,21.394" id="Fill-122" fill="#44B0D8" sketch:type="MSShapeGroup"></path>
            <path d="M340.263,21.394 C317.378,23.727 331.012,52.222 331.012,52.222 L377.822,52.222 C376.127,45.237 373.638,40.277 370.757,36.803 C370.757,36.803 360.422,19.971 340.263,21.394 L340.263,21.394 Z" id="Stroke-123" stroke="#0A0B09" stroke-width="3" sketch:type="MSShapeGroup"></path>
            <path d="M387.366,27.074 C387.366,26.229 386.147,25.544 384.64,25.544 C383.134,25.544 381.913,26.229 381.913,27.074 C381.913,27.919 383.134,28.604 384.64,28.604 C386.147,28.604 387.366,27.919 387.366,27.074" id="Fill-124" fill="#0A0B09" sketch:type="MSShapeGroup"></path>
            <path d="M387.366,27.074 C387.366,26.229 386.147,25.544 384.64,25.544 C383.134,25.544 381.913,26.229 381.913,27.074 C381.913,27.919 383.134,28.604 384.64,28.604 C386.147,28.604 387.366,27.919 387.366,27.074 L387.366,27.074 Z" id="Stroke-125" stroke="#0C0D0B" stroke-width="3" sketch:type="MSShapeGroup"></path>
            <path d="M412.818,52.222 L377.822,52.222 C377.822,52.222 370.757,36.803 366.822,31.96 C366.822,31.96 375.659,27.796 385.991,28.744 C395.618,29.628 406.541,34.952 412.818,52.222" id="Fill-126" fill="#FFFFFF" sketch:type="MSShapeGroup"></path>
            <path d="M412.818,52.222 L377.822,52.222 C377.822,52.222 370.757,36.803 366.822,31.96 C366.822,31.96 375.659,27.796 385.991,28.744 C395.618,29.628 406.541,34.952 412.818,52.222" id="Stroke-127" stroke="#0B0B0A" stroke-width="3" sketch:type="MSShapeGroup"></path>
            <path d="M293.365,117.618 L258.825,117.618 L276.096,133.742 L293.365,117.618" id="Fill-128" fill="#C7A3C1" sketch:type="MSShapeGroup"></path>
            <path d="M293.365,117.618 L258.825,117.618 L276.096,133.742 L293.365,117.618 L293.365,117.618 Z" id="Stroke-129" stroke="#0A0B09" stroke-width="3" sketch:type="MSShapeGroup"></path>
            <path d="M260.189,117.618 L291.548,117.618 L287.685,121.472 L264.165,121.472 L260.189,117.618" id="Fill-130" fill="#FFFFFF" sketch:type="MSShapeGroup"></path>
            <path d="M260.189,117.618 L291.548,117.618 L287.685,121.472 L264.165,121.472 L260.189,117.618 L260.189,117.618 Z" id="Stroke-131" stroke="#0A0B09" stroke-width="3" sketch:type="MSShapeGroup"></path>
            <path d="M261.583,117.735 L275.25,131.99 L276.182,131.074 L261.583,117.735" id="Fill-132" fill="#FFFFFF" sketch:type="MSShapeGroup"></path>
            <path d="M265.251,118.627 L275.064,128.505 L268.857,118.989 L265.251,118.627" id="Fill-133" fill="#FFFFFF" sketch:type="MSShapeGroup"></path>
            <path d="M213.615,142.304 C213.615,142.304 206.741,147.711 202.649,143.62 C198.557,139.529 199.602,136.602 201.541,132.52" id="Fill-134" fill="#FFFFFF" sketch:type="MSShapeGroup"></path>
            <path d="M213.615,142.304 C213.615,142.304 206.741,147.711 202.649,143.62 C198.557,139.529 199.602,136.602 201.541,132.52" id="Stroke-135" stroke="#0B0B0A" stroke-width="3" sketch:type="MSShapeGroup"></path>
            <path d="M214.318,139.623 C212.118,143.399 215.204,145.11 218.699,144.979 C220.533,144.91 228.856,142.209 223.906,139.623" id="Fill-136" fill="#FFFFFF" sketch:type="MSShapeGroup"></path>
            <path d="M214.318,139.623 C212.118,143.399 215.204,145.11 218.699,144.979 C220.533,144.91 228.856,142.209 223.906,139.623" id="Stroke-137" stroke="#0B0B0A" stroke-width="3" sketch:type="MSShapeGroup"></path>
            <path d="M214.318,136.312 C212.118,140.089 215.204,141.799 218.699,141.668 C220.533,141.599 228.856,138.899 223.906,136.312" id="Fill-138" fill="#FFFFFF" sketch:type="MSShapeGroup"></path>
            <path d="M214.318,136.312 C212.118,140.089 215.204,141.799 218.699,141.668 C220.533,141.599 228.856,138.899 223.906,136.312" id="Stroke-139" stroke="#0B0B0A" stroke-width="3" sketch:type="MSShapeGroup"></path>
            <path d="M215.027,132.52 C212.827,136.297 215.912,138.007 219.407,137.876 C221.239,137.807 229.564,135.106 224.614,132.52" id="Fill-140" fill="#FFFFFF" sketch:type="MSShapeGroup"></path>
            <path d="M215.027,132.52 C212.827,136.297 215.912,138.007 219.407,137.876 C221.239,137.807 229.564,135.106 224.614,132.52" id="Stroke-141" stroke="#0B0B0A" stroke-width="3" sketch:type="MSShapeGroup"></path>
            <path d="M206.095,125.531 C206.095,125.531 214.815,118.747 224.506,125.531 C224.506,125.531 229.674,131.991 217.723,134.575 C217.723,134.575 212.214,133.785 216.841,128.546 C216.841,128.546 213.201,126.069 210.293,128.546 C210.293,128.546 214.492,131.345 212.23,134.575 C207.526,141.299 194.788,136.19 206.095,125.531" id="Fill-142" fill="#FFFFFF" sketch:type="MSShapeGroup"></path>
            <path d="M206.095,125.531 C206.095,125.531 214.815,118.747 224.506,125.531 C224.506,125.531 229.674,131.991 217.723,134.575 C217.723,134.575 212.214,133.785 216.841,128.546 C216.841,128.546 213.201,126.069 210.293,128.546 C210.293,128.546 214.492,131.345 212.23,134.575 C207.526,141.299 194.788,136.19 206.095,125.531 L206.095,125.531 Z" id="Stroke-143" stroke="#0B0B0A" stroke-width="3" sketch:type="MSShapeGroup"></path>
            <path d="M214.515,149.985 L214.288,128.398" id="Fill-144" fill="#6A797E" sketch:type="MSShapeGroup"></path>
            <path d="M214.515,149.985 L214.288,128.398" id="Stroke-145" stroke="#0A0B09" stroke-width="3" sketch:type="MSShapeGroup"></path>
            <path d="M206.903,155.211 L214.515,149.416 L222.923,155.211 L206.903,155.211" id="Fill-146" fill="#FFFFFF" sketch:type="MSShapeGroup"></path>
            <path d="M206.903,155.211 L214.515,149.416 L222.923,155.211 L206.903,155.211 L206.903,155.211 Z" id="Stroke-147" stroke="#0A0B09" stroke-width="3" sketch:type="MSShapeGroup"></path>
            <path d="M197.018,112.273 L231.557,112.273 L214.288,128.398 L197.018,112.273" id="Fill-148" fill="#C7A3C1" sketch:type="MSShapeGroup"></path>
            <path d="M197.018,112.273 L231.557,112.273 L214.288,128.398 L197.018,112.273 L197.018,112.273 Z" id="Stroke-149" stroke="#0A0B09" stroke-width="3" sketch:type="MSShapeGroup"></path>
            <path d="M230.194,112.273 L198.836,112.273 L202.698,116.126 L226.218,116.126 L230.194,112.273" id="Fill-150" fill="#FFFFFF" sketch:type="MSShapeGroup"></path>
            <path d="M230.194,112.273 L198.836,112.273 L202.698,116.126 L226.218,116.126 L230.194,112.273 L230.194,112.273 Z" id="Stroke-151" stroke="#0A0B09" stroke-width="3" sketch:type="MSShapeGroup"></path>
            <path d="M228.801,112.39 L215.134,126.644 L214.202,125.729 L228.801,112.39" id="Fill-152" fill="#FFFFFF" sketch:type="MSShapeGroup"></path>
            <path d="M225.133,113.282 L215.321,123.16 L221.527,113.644 L225.133,113.282" id="Fill-153" fill="#FFFFFF" sketch:type="MSShapeGroup"></path>
            <path d="M201.541,132.52 C201.541,132.52 199.615,142.299 213.58,135.201 L212.69,142.949" id="Fill-154" fill="#FFFFFF" sketch:type="MSShapeGroup"></path>
            <path d="M201.541,132.52 C201.541,132.52 199.615,142.299 213.58,135.201 L212.69,142.949" id="Stroke-155" stroke="#0B0B0A" stroke-width="3" sketch:type="MSShapeGroup"></path>
            <path d="M276.182,147.02 L276.769,137.883 C276.769,137.883 282.039,149.37 288.801,139.191 C288.801,139.191 295.43,156.998 276.182,147.02" id="Fill-156" fill="#FFFFFF" sketch:type="MSShapeGroup"></path>
            <path d="M276.182,147.02 L276.769,137.883 C276.769,137.883 282.039,149.37 288.801,139.191 C288.801,139.191 295.43,156.998 276.182,147.02 L276.182,147.02 Z" id="Stroke-157" stroke="#0B0B0A" stroke-width="3" sketch:type="MSShapeGroup"></path>
        </g>
    </g>
</svg>