<?xml version="1.0" encoding="UTF-8" standalone="no"?>
<svg width="614px" height="492px" viewBox="0 0 614 492" version="1.1" xmlns="http://www.w3.org/2000/svg" xmlns:xlink="http://www.w3.org/1999/xlink" xmlns:sketch="http://www.bohemiancoding.com/sketch/ns">
    <!-- Generator: Sketch 3.2.2 (9983) - http://www.bohemiancoding.com/sketch -->
    <title>Untitled</title>
    <desc>Created with Sketch.</desc>
    <defs></defs>
    <g id="Page-1" stroke="none" stroke-width="1" fill="none" fill-rule="evenodd" sketch:type="MSPage">
        <g id="cheers6ai" sketch:type="MSLayerGroup" transform="translate(2.000000, 0.000000)">
            <path d="M189.51,24.968 C189.51,24.968 231.351,34.575 255.212,0.263 C255.212,0.263 283.412,25.654 335.799,3.008 C335.799,3.008 353.872,41.437 423.869,18.792 C423.869,18.792 425.242,68.805 467.788,82.571 C467.788,82.571 411.518,224.339 467.788,265.333 C467.788,265.333 378.823,281.623 385.563,335.15 C385.563,335.15 324.64,290.908 289.504,320.919 C289.504,320.919 252.271,280.981 200.822,320.074 C200.822,320.074 193.293,265.152 145.256,279.564 C145.256,279.564 180.94,210.941 145.256,197.215 C109.571,183.489 145.256,197.215 145.256,197.215 L136.335,78.494 C136.335,78.494 174.062,90.847 189.51,24.968" id="Fill-6" fill="#FAD7A7" sketch:type="MSShapeGroup"></path>
            <path d="M274.017,265.529 L281.643,293.025 C281.643,293.025 285.16,305.525 277.83,315.025 C270.5,324.525 262.463,312.025 261.278,309.314" id="Fill-7" fill="#F6CABC" sketch:type="MSShapeGroup"></path>
            <path d="M274.017,265.529 L281.643,293.025 C281.643,293.025 285.16,305.525 277.83,315.025 C270.5,324.525 262.463,312.025 261.278,309.314" id="Stroke-8" stroke="#401E1D" stroke-width="3" sketch:type="MSShapeGroup"></path>
            <path d="M283.963,238.841 L291.589,266.335 C291.589,266.335 295.106,278.835 287.776,288.335 C280.446,297.835 272.41,285.335 271.224,282.626" id="Fill-9" fill="#F6CABC" sketch:type="MSShapeGroup"></path>
            <path d="M283.963,238.841 L291.589,266.335 C291.589,266.335 295.106,278.835 287.776,288.335 C280.446,297.835 272.41,285.335 271.224,282.626" id="Stroke-10" stroke="#401E1D" stroke-width="3" sketch:type="MSShapeGroup"></path>
            <path d="M328.919,250.808 L321.294,278.303 C321.294,278.303 317.776,290.803 325.106,300.304 C332.437,309.804 341.977,293.738 343.162,291.027" id="Fill-11" fill="#F6CABC" sketch:type="MSShapeGroup"></path>
            <path d="M328.919,250.808 L321.294,278.303 C321.294,278.303 317.776,290.803 325.106,300.304 C332.437,309.804 341.977,293.738 343.162,291.027" id="Stroke-12" stroke="#401E1D" stroke-width="3" sketch:type="MSShapeGroup"></path>
            <path d="M322.639,235.192 L315.014,262.687 C315.014,262.687 311.496,275.187 318.826,284.687 C326.156,294.187 335.696,278.121 336.882,275.412" id="Fill-13" fill="#F6CABC" sketch:type="MSShapeGroup"></path>
            <path d="M322.639,235.192 L315.014,262.687 C315.014,262.687 311.496,275.187 318.826,284.687 C326.156,294.187 335.696,278.121 336.882,275.412" id="Stroke-14" stroke="#401E1D" stroke-width="3" sketch:type="MSShapeGroup"></path>
            <path d="M278.138,172.976 L296.296,194.985 C296.296,194.985 304.597,204.971 301.769,216.632 C298.941,228.294 286.512,220.148 284.326,218.155" id="Fill-15" fill="#F6CABC" sketch:type="MSShapeGroup"></path>
            <path d="M278.138,172.976 L296.296,194.985 C296.296,194.985 304.597,204.971 301.769,216.632 C298.941,228.294 286.512,220.148 284.326,218.155" id="Stroke-16" stroke="#401E1D" stroke-width="3" sketch:type="MSShapeGroup"></path>
            <path d="M345.613,187.553 L318.524,196.515 C318.524,196.515 306.211,200.64 296.364,193.783 C286.517,186.926 298.609,178.287 301.257,176.971" id="Fill-17" fill="#F6CABC" sketch:type="MSShapeGroup"></path>
            <path d="M345.613,187.553 L318.524,196.515 C318.524,196.515 306.211,200.64 296.364,193.783 C286.517,186.926 298.609,178.287 301.257,176.971" id="Stroke-18" stroke="#401E1D" stroke-width="3" sketch:type="MSShapeGroup"></path>
            <path d="M304.627,132.462 L299.124,154.729 C299.124,154.729 297.232,160.748 300.584,166.284 L370.869,406.455 C370.869,406.455 375.272,420.373 378.734,420.441 L400.597,421.625" id="Fill-19" fill="#617A80" sketch:type="MSShapeGroup"></path>
            <path d="M304.627,132.462 L299.124,154.729 C299.124,154.729 297.232,160.748 300.584,166.284 L370.869,406.455 C370.869,406.455 375.272,420.373 378.734,420.441 L400.597,421.625" id="Stroke-20" stroke="#0B0A0B" stroke-width="3" sketch:type="MSShapeGroup"></path>
            <path d="M330.795,248.314 L326.152,249.679 L322.726,238.021 L327.367,236.656 C327.367,236.656 334.356,241.287 330.795,248.314" id="Fill-21" fill="#FFFFFF" sketch:type="MSShapeGroup"></path>
            <path d="M330.795,248.314 L326.152,249.679 L322.726,238.021 L327.367,236.656 C327.367,236.656 334.356,241.287 330.795,248.314 L330.795,248.314 Z" id="Stroke-22" stroke="#0B0A0B" sketch:type="MSShapeGroup"></path>
            <path d="M327.653,242.905 C328.6,246.125 327.927,249.157 326.152,249.679 C324.376,250.201 322.17,248.013 321.225,244.795 C320.276,241.575 320.95,238.543 322.726,238.021 C324.502,237.5 326.707,239.686 327.653,242.905" id="Fill-23" fill="#FFFFFF" sketch:type="MSShapeGroup"></path>
            <path d="M327.653,242.905 C328.6,246.125 327.927,249.157 326.152,249.679 C324.376,250.201 322.17,248.013 321.225,244.795 C320.276,241.575 320.95,238.543 322.726,238.021 C324.502,237.5 326.707,239.686 327.653,242.905 L327.653,242.905 Z" id="Stroke-24" stroke="#0B0A0B" sketch:type="MSShapeGroup"></path>
            <path d="M319.978,205.685 C320.379,207.047 319.484,208.51 317.981,208.952 C316.479,209.393 314.937,208.647 314.534,207.284 L308.441,186.558 C308.042,185.196 308.936,183.734 310.438,183.292 C311.941,182.85 313.484,183.597 313.886,184.959 L319.978,205.685" id="Fill-25" fill="#FFFFFF" sketch:type="MSShapeGroup"></path>
            <path d="M319.978,205.685 C320.379,207.047 319.484,208.51 317.981,208.952 C316.479,209.393 314.937,208.647 314.534,207.284 L308.441,186.558 C308.042,185.196 308.936,183.734 310.438,183.292 C311.941,182.85 313.484,183.597 313.886,184.959 L319.978,205.685 L319.978,205.685 Z" id="Stroke-26" stroke="#0B0A0C" stroke-width="2" sketch:type="MSShapeGroup"></path>
            <path d="M325.444,232.122 L320.802,233.488 L317.374,221.829 L322.019,220.463 C322.019,220.463 329.006,225.095 325.444,232.122" id="Fill-27" fill="#FFFFFF" sketch:type="MSShapeGroup"></path>
            <path d="M325.444,232.122 L320.802,233.488 L317.374,221.829 L322.019,220.463 C322.019,220.463 329.006,225.095 325.444,232.122 L325.444,232.122 Z" id="Stroke-28" stroke="#0B0A0B" sketch:type="MSShapeGroup"></path>
            <path d="M322.303,226.714 C323.249,229.933 322.576,232.965 320.802,233.488 C319.026,234.009 316.818,231.822 315.873,228.603 C314.928,225.383 315.599,222.351 317.374,221.829 C319.149,221.307 321.356,223.493 322.303,226.714" id="Fill-29" fill="#FFFFFF" sketch:type="MSShapeGroup"></path>
            <path d="M322.303,226.714 C323.249,229.933 322.576,232.965 320.802,233.488 C319.026,234.009 316.818,231.822 315.873,228.603 C314.928,225.383 315.599,222.351 317.374,221.829 C319.149,221.307 321.356,223.493 322.303,226.714 L322.303,226.714 Z" id="Stroke-30" stroke="#0B0A0B" sketch:type="MSShapeGroup"></path>
            <path d="M318.232,224.743 L319.945,230.572" id="Fill-31" fill="#FFFFFF" sketch:type="MSShapeGroup"></path>
            <path d="M318.232,224.743 L319.945,230.572" id="Stroke-32" stroke="#0B0A0B" sketch:type="MSShapeGroup"></path>
            <path d="M317.273,228.191 L320.721,227.178" id="Fill-33" fill="#FFFFFF" sketch:type="MSShapeGroup"></path>
            <path d="M317.273,228.191 L320.721,227.178" id="Stroke-34" stroke="#0B0A0B" sketch:type="MSShapeGroup"></path>
            <path d="M323.35,244.17 L325.525,243.53" id="Stroke-35" stroke="#455759" sketch:type="MSShapeGroup"></path>
            <path d="M299.751,136.524 L303.674,158.002 C303.674,158.002 305.081,163.791 302.01,169.317 L233.139,406.029 C233.139,406.029 228.866,419.763 225.892,419.964 L207.099,421.97" id="Fill-36" fill="#617A80" sketch:type="MSShapeGroup"></path>
            <path d="M299.751,136.524 L303.674,158.002 C303.674,158.002 305.081,163.791 302.01,169.317 L233.139,406.029 C233.139,406.029 228.866,419.763 225.892,419.964 L207.099,421.97" id="Stroke-37" stroke="#0B0A0B" stroke-width="3" sketch:type="MSShapeGroup"></path>
            <path d="M542.34,364.738 C544.389,371.496 540.753,378.578 534.22,380.558 L401.15,420.878 C394.617,422.859 387.66,418.982 385.613,412.226 L303.428,140.988 C301.383,134.23 305.017,127.146 311.55,125.167 L444.619,84.847 C451.152,82.868 458.109,86.741 460.156,93.499 L542.34,364.738" id="Fill-38" fill="#FFFFFF" sketch:type="MSShapeGroup"></path>
            <path d="M542.34,364.738 C544.389,371.496 540.753,378.578 534.22,380.558 L401.15,420.878 C394.617,422.859 387.66,418.982 385.613,412.226 L303.428,140.988 C301.383,134.23 305.017,127.146 311.55,125.167 L444.619,84.847 C451.152,82.868 458.109,86.741 460.156,93.499 L542.34,364.738 L542.34,364.738 Z" id="Stroke-39" stroke="#0B0A0B" stroke-width="3" sketch:type="MSShapeGroup"></path>
            <path d="M520.211,325.449 C522.192,331.982 518.502,338.882 511.969,340.861 L398.612,375.208 C392.079,377.187 385.179,373.496 383.199,366.964 L325.558,176.724 C323.576,170.191 327.269,163.29 333.802,161.311 L447.158,126.963 C453.691,124.984 460.59,128.676 462.569,135.209 L520.211,325.449" id="Fill-40" fill="#00A072" sketch:type="MSShapeGroup"></path>
            <path d="M481.023,371.923 C483.662,380.634 478.739,389.835 470.03,392.474 C461.321,395.115 452.12,390.193 449.481,381.48 C446.841,372.769 451.762,363.572 460.473,360.931 C469.183,358.292 478.383,363.214 481.023,371.923" id="Fill-41" fill="#FFFFFF" sketch:type="MSShapeGroup"></path>
            <path d="M481.023,371.923 C483.662,380.634 478.739,389.835 470.03,392.474 C461.321,395.115 452.12,390.193 449.481,381.48 C446.841,372.769 451.762,363.572 460.473,360.931 C469.183,358.292 478.383,363.214 481.023,371.923 L481.023,371.923 Z" id="Stroke-42" stroke="#0B0A0B" stroke-width="3" sketch:type="MSShapeGroup"></path>
            <path d="M351.784,129.938 C352.285,131.593 351.349,133.342 349.694,133.844 C348.039,134.346 346.291,133.409 345.788,131.755 C345.287,130.099 346.222,128.351 347.876,127.849 C349.533,127.346 351.281,128.283 351.784,129.938" id="Fill-43" fill="#0B0A0B" sketch:type="MSShapeGroup"></path>
            <path d="M351.784,129.938 C352.285,131.593 351.349,133.342 349.694,133.844 C348.039,134.346 346.291,133.409 345.788,131.755 C345.287,130.099 346.222,128.351 347.876,127.849 C349.533,127.346 351.281,128.283 351.784,129.938 L351.784,129.938 Z" id="Stroke-44" stroke="#0B0A0B" stroke-width="3" sketch:type="MSShapeGroup"></path>
            <path d="M421.809,108.72 C422.31,110.376 421.375,112.125 419.719,112.627 C418.064,113.128 416.315,112.192 415.815,110.538 C415.312,108.882 416.248,107.132 417.902,106.631 C419.558,106.129 421.308,107.065 421.809,108.72" id="Fill-45" fill="#0B0A0B" sketch:type="MSShapeGroup"></path>
            <path d="M421.809,108.72 C422.31,110.376 421.375,112.125 419.719,112.627 C418.064,113.128 416.315,112.192 415.815,110.538 C415.312,108.882 416.248,107.132 417.902,106.631 C419.558,106.129 421.308,107.065 421.809,108.72 L421.809,108.72 Z" id="Stroke-46" stroke="#0B0A0B" stroke-width="3" sketch:type="MSShapeGroup"></path>
            <path d="M216.844,412.658 C214.717,419.388 207.715,423.181 201.207,421.125 L68.624,379.228 C62.116,377.171 58.564,370.046 60.691,363.312 L146.087,93.068 C148.216,86.335 155.217,82.545 161.725,84.601 L294.308,126.497 C300.816,128.553 304.368,135.679 302.24,142.412 L216.844,412.658" id="Fill-47" fill="#FFFFFF" sketch:type="MSShapeGroup"></path>
            <path d="M216.844,412.658 C214.717,419.388 207.715,423.181 201.207,421.125 L68.624,379.228 C62.116,377.171 58.564,370.046 60.691,363.312 L146.087,93.068 C148.216,86.335 155.217,82.545 161.725,84.601 L294.308,126.497 C300.816,128.553 304.368,135.679 302.24,142.412 L216.844,412.658 L216.844,412.658 Z" id="Stroke-48" stroke="#0B0A0B" stroke-width="3" sketch:type="MSShapeGroup"></path>
            <path d="M221.17,364.783 C219.114,371.292 212.169,374.902 205.661,372.845 L92.72,337.156 C86.212,335.101 82.603,328.156 84.659,321.648 L144.554,132.103 C146.611,125.594 153.555,121.985 160.064,124.042 L273.004,159.731 C279.513,161.788 283.122,168.731 281.065,175.24 L221.17,364.783" id="Fill-49" fill="#E67853" sketch:type="MSShapeGroup"></path>
            <path d="M162.186,383.951 C159.443,392.628 150.185,397.441 141.507,394.699 C132.829,391.957 128.017,382.697 130.759,374.019 C133.502,365.339 142.759,360.529 151.438,363.271 C160.115,366.013 164.928,375.271 162.186,383.951" id="Fill-50" fill="#FFFFFF" sketch:type="MSShapeGroup"></path>
            <path d="M162.186,383.951 C159.443,392.628 150.185,397.441 141.507,394.699 C132.829,391.957 128.017,382.697 130.759,374.019 C133.502,365.339 142.759,360.529 151.438,363.271 C160.115,366.013 164.928,375.271 162.186,383.951 L162.186,383.951 Z M181.958,102.909 L191.777,113.601 L176.503,114.437 L181.958,102.909 Z M265.419,142.464 L254.875,132.488 L270.052,130.583 L265.419,142.464 Z M206.208,117.6 C206.208,123.19 221.613,127.713 240.651,127.713 L206.208,117.6 Z M400.555,122.053 C401.135,124.239 395.679,127.581 388.369,129.517 C381.06,131.453 374.664,131.251 374.086,129.064 C373.508,126.877 378.964,123.537 386.273,121.6 C393.584,119.665 399.978,119.866 400.555,122.053 L400.555,122.053 Z" id="Stroke-51" stroke="#0B0A0B" stroke-width="2" fill="#000000" sketch:type="MSShapeGroup"></path>
            <path d="M106.148,392.558 C106.148,392.558 96,437.525 113.5,446.025 L115.5,442.275 C115.5,442.275 100.555,436.955 109.361,393.574 L106.148,392.558" id="Fill-52" fill="#617A80" sketch:type="MSShapeGroup"></path>
            <path d="M106.148,392.558 C106.148,392.558 96,437.525 113.5,446.025 L115.5,442.275 C115.5,442.275 100.555,436.955 109.361,393.574 L106.148,392.558 L106.148,392.558 Z" id="Stroke-53" stroke="#0B0A0B" stroke-width="3" sketch:type="MSShapeGroup"></path>
            <path d="M110.094,463.847 L117.492,473.56 C117.492,473.56 127.171,473.89 128.033,453.425 L119.194,442.521 L110.094,463.847" id="Fill-54" fill="#FFFFFF" sketch:type="MSShapeGroup"></path>
            <path d="M110.094,463.847 L117.492,473.56 C117.492,473.56 127.171,473.89 128.033,453.425 L119.194,442.521 L110.094,463.847 L110.094,463.847 Z" id="Stroke-55" stroke="#0B0A0C" stroke-width="3" sketch:type="MSShapeGroup"></path>
            <path d="M108.356,442.056 C108.356,442.056 109.759,443.742 114.785,440.191 C117.967,437.943 125.054,451.564 125.054,451.564 C125.054,451.564 124.878,462.976 119.588,468.771 C114.298,474.562 107.179,458.427 107.179,458.427 L108.356,442.056" id="Fill-56" fill="#E36583" sketch:type="MSShapeGroup"></path>
            <path d="M108.356,442.056 C108.356,442.056 109.759,443.742 114.785,440.191 C117.967,437.943 125.054,451.564 125.054,451.564 C125.054,451.564 124.878,462.976 119.588,468.771 C114.298,474.562 107.179,458.427 107.179,458.427 L108.356,442.056 L108.356,442.056 Z" id="Stroke-57" stroke="#0B0A0B" stroke-width="3" sketch:type="MSShapeGroup"></path>
            <path d="M110.454,449.289 L116.653,453.242" id="Fill-58" fill="#FFFFFF" sketch:type="MSShapeGroup"></path>
            <path d="M110.454,449.289 L116.653,453.242" id="Stroke-59" stroke="#FFFFFF" stroke-width="3" sketch:type="MSShapeGroup"></path>
            <path d="M110.706,454.966 L115.896,447.71" id="Fill-60" fill="#FFFFFF" sketch:type="MSShapeGroup"></path>
            <path d="M110.706,454.966 L115.896,447.71 L110.706,454.966 Z M111.652,444.708 C111.652,444.708 105.179,440.712 103.497,445.73 C101.815,450.748 109.728,446.785 111.652,444.708 L111.652,444.708 Z M112.536,444.453 C112.536,444.453 115.867,437.611 119.972,440.953 C124.077,444.292 115.273,445.177 112.536,444.453 L112.536,444.453 Z M111.246,443.308 L112.08,446.183 L111.246,443.308 Z" id="Stroke-61" stroke="#FFFFFF" stroke-width="3" sketch:type="MSShapeGroup"></path>
            <path d="M161.477,408.789 C161.477,408.789 151.329,453.755 168.829,462.255 L170.829,458.505 C170.829,458.505 155.884,453.185 164.69,409.804 L161.477,408.789" id="Fill-62" fill="#617A80" sketch:type="MSShapeGroup"></path>
            <path d="M161.477,408.789 C161.477,408.789 151.329,453.755 168.829,462.255 L170.829,458.505 C170.829,458.505 155.884,453.185 164.69,409.804 L161.477,408.789 L161.477,408.789 Z" id="Stroke-63" stroke="#0B0A0B" stroke-width="3" sketch:type="MSShapeGroup"></path>
            <path d="M165.423,480.078 L172.821,489.791 C172.821,489.791 182.501,490.121 183.362,469.656 L174.523,458.751 L165.423,480.078" id="Fill-64" fill="#FFFFFF" sketch:type="MSShapeGroup"></path>
            <path d="M165.423,480.078 L172.821,489.791 C172.821,489.791 182.501,490.121 183.362,469.656 L174.523,458.751 L165.423,480.078 L165.423,480.078 Z" id="Stroke-65" stroke="#0B0A0B" stroke-width="3" sketch:type="MSShapeGroup"></path>
            <path d="M163.686,458.287 C163.686,458.287 165.088,459.972 170.114,456.421 C173.296,454.173 180.383,467.794 180.383,467.794 C180.383,467.794 180.208,479.207 174.917,485.001 C169.627,490.792 162.508,474.658 162.508,474.658 L163.686,458.287" id="Fill-66" fill="#E36583" sketch:type="MSShapeGroup"></path>
            <path d="M163.686,458.287 C163.686,458.287 165.088,459.972 170.114,456.421 C173.296,454.173 180.383,467.794 180.383,467.794 C180.383,467.794 180.208,479.207 174.917,485.001 C169.627,490.792 162.508,474.658 162.508,474.658 L163.686,458.287 L163.686,458.287 Z" id="Stroke-67" stroke="#0B0A0B" stroke-width="3" sketch:type="MSShapeGroup"></path>
            <path d="M165.783,465.519 L171.982,469.472" id="Fill-68" fill="#FFFFFF" sketch:type="MSShapeGroup"></path>
            <path d="M165.783,465.519 L171.982,469.472" id="Stroke-69" stroke="#FFFFFF" stroke-width="3" sketch:type="MSShapeGroup"></path>
            <path d="M166.035,471.197 L171.225,463.941" id="Fill-70" fill="#FFFFFF" sketch:type="MSShapeGroup"></path>
            <path d="M166.035,471.197 L171.225,463.941 L166.035,471.197 Z M166.981,460.939 C166.981,460.939 160.508,456.943 158.826,461.96 C157.145,466.978 165.057,463.015 166.981,460.939 L166.981,460.939 Z M167.865,460.683 C167.865,460.683 171.196,453.841 175.301,457.183 C179.406,460.523 170.603,461.408 167.865,460.683 L167.865,460.683 Z M166.575,459.539 L167.409,462.414 L166.575,459.539 Z" id="Stroke-71" stroke="#FFFFFF" stroke-width="3" sketch:type="MSShapeGroup"></path>
            <path d="M499.022,391.326 C499.022,391.326 509.168,436.292 491.668,444.792 L489.668,441.042 C489.668,441.042 504.613,435.722 495.808,392.341 L499.022,391.326" id="Fill-72" fill="#617A80" sketch:type="MSShapeGroup"></path>
            <path d="M499.022,391.326 C499.022,391.326 509.168,436.292 491.668,444.792 L489.668,441.042 C489.668,441.042 504.613,435.722 495.808,392.341 L499.022,391.326 L499.022,391.326 Z" id="Stroke-73" stroke="#0B0A0B" stroke-width="3" sketch:type="MSShapeGroup"></path>
            <path d="M495.31,462.615 L487.911,472.328 C487.911,472.328 478.232,472.658 477.371,452.193 L486.21,441.289 L495.31,462.615" id="Fill-74" fill="#FFFFFF" sketch:type="MSShapeGroup"></path>
            <path d="M495.31,462.615 L487.911,472.328 C487.911,472.328 478.232,472.658 477.371,452.193 L486.21,441.289 L495.31,462.615 L495.31,462.615 Z" id="Stroke-75" stroke="#0B0A0B" stroke-width="3" sketch:type="MSShapeGroup"></path>
            <path d="M496.813,440.824 C496.813,440.824 495.41,442.509 490.384,438.958 C487.201,436.71 480.115,450.332 480.115,450.332 C480.115,450.332 480.29,461.744 485.58,467.539 C490.871,473.33 497.99,457.195 497.99,457.195 L496.813,440.824" id="Fill-76" fill="#E36583" sketch:type="MSShapeGroup"></path>
            <path d="M496.813,440.824 C496.813,440.824 495.41,442.509 490.384,438.958 C487.201,436.71 480.115,450.332 480.115,450.332 C480.115,450.332 480.29,461.744 485.58,467.539 C490.871,473.33 497.99,457.195 497.99,457.195 L496.813,440.824 L496.813,440.824 Z" id="Stroke-77" stroke="#0B0A0B" stroke-width="3" sketch:type="MSShapeGroup"></path>
            <path d="M494.715,448.056 L488.516,452.009" id="Stroke-78" stroke="#FDFBFA" stroke-width="3" sketch:type="MSShapeGroup"></path>
            <path d="M494.21,453.734 L489.021,446.478 L494.21,453.734 Z M493.517,443.476 C493.517,443.476 499.99,439.48 501.672,444.498 C503.354,449.515 495.441,445.552 493.517,443.476 L493.517,443.476 Z M492.633,443.22 C492.633,443.22 489.301,436.378 485.196,439.72 C481.092,443.06 489.895,443.945 492.633,443.22 L492.633,443.22 Z M493.922,442.076 L493.089,444.951 L493.922,442.076 Z" id="Stroke-79" stroke="#FCF6F6" stroke-width="3" sketch:type="MSShapeGroup"></path>
            <path d="M443.691,407.556 C443.691,407.556 453.84,452.523 436.34,461.023 L434.34,457.273 C434.34,457.273 449.284,451.953 440.479,408.572 L443.691,407.556" id="Fill-80" fill="#617A80" sketch:type="MSShapeGroup"></path>
            <path d="M443.691,407.556 C443.691,407.556 453.84,452.523 436.34,461.023 L434.34,457.273 C434.34,457.273 449.284,451.953 440.479,408.572 L443.691,407.556 L443.691,407.556 Z" id="Stroke-81" stroke="#0B0A0B" stroke-width="3" sketch:type="MSShapeGroup"></path>
            <path d="M439.745,478.845 L432.348,488.558 C432.348,488.558 422.668,488.888 421.807,468.423 L430.645,457.519 L439.745,478.845" id="Fill-82" fill="#FFFFFF" sketch:type="MSShapeGroup"></path>
            <path d="M439.745,478.845 L432.348,488.558 C432.348,488.558 422.668,488.888 421.807,468.423 L430.645,457.519 L439.745,478.845 L439.745,478.845 Z" id="Stroke-83" stroke="#455759" stroke-width="3" sketch:type="MSShapeGroup"></path>
            <path d="M441.482,457.054 C441.482,457.054 440.08,458.74 435.055,455.189 C431.873,452.941 424.785,466.562 424.785,466.562 C424.785,466.562 424.961,477.974 430.252,483.769 C435.541,489.56 442.66,473.425 442.66,473.425 L441.482,457.054" id="Fill-84" fill="#E36583" sketch:type="MSShapeGroup"></path>
            <path d="M441.482,457.054 C441.482,457.054 440.08,458.74 435.055,455.189 C431.873,452.941 424.785,466.562 424.785,466.562 C424.785,466.562 424.961,477.974 430.252,483.769 C435.541,489.56 442.66,473.425 442.66,473.425 L441.482,457.054 L441.482,457.054 Z" id="Stroke-85" stroke="#0B0A0B" stroke-width="3" sketch:type="MSShapeGroup"></path>
            <path d="M439.386,464.287 L433.187,468.24" id="Fill-86" fill="#FFFFFF" sketch:type="MSShapeGroup"></path>
            <path d="M439.386,464.287 L433.187,468.24" id="Stroke-87" stroke="#FFFFFF" stroke-width="3" sketch:type="MSShapeGroup"></path>
            <path d="M439.133,469.964 L433.943,462.708" id="Fill-88" fill="#FFFFFF" sketch:type="MSShapeGroup"></path>
            <path d="M439.133,469.964 L433.943,462.708 L439.133,469.964 Z M438.188,459.707 C438.188,459.707 444.66,455.71 446.343,460.728 C448.023,465.746 440.111,461.783 438.188,459.707 L438.188,459.707 Z M437.304,459.451 C437.304,459.451 433.973,452.609 429.867,455.951 C425.763,459.291 434.566,460.175 437.304,459.451 L437.304,459.451 Z M438.594,458.306 L437.76,461.181 L438.594,458.306 Z" id="Stroke-89" stroke="#FFFFFF" stroke-width="3" sketch:type="MSShapeGroup"></path>
            <path d="M259.804,304.189 C259.386,305.546 257.833,306.273 256.336,305.81 C254.839,305.349 253.965,303.875 254.383,302.517 L260.75,281.874 C261.169,280.517 262.721,279.791 264.218,280.252 C265.716,280.714 266.59,282.189 266.172,283.546 L259.804,304.189" id="Fill-90" fill="#617A80" sketch:type="MSShapeGroup"></path>
            <path d="M259.804,304.189 C259.386,305.546 257.833,306.273 256.336,305.81 C254.839,305.349 253.965,303.875 254.383,302.517 L260.75,281.874 C261.169,280.517 262.721,279.791 264.218,280.252 C265.716,280.714 266.59,282.189 266.172,283.546 L259.804,304.189 L259.804,304.189 Z" id="Stroke-91" stroke="#0B0A0B" stroke-width="2" sketch:type="MSShapeGroup"></path>
            <path d="M270.833,252.863 L270.833,329.859 L274.5,329.859 L274.5,252.863 C274.5,252.863 273.167,248.867 270.833,252.863" id="Fill-92" fill="#617A80" sketch:type="MSShapeGroup"></path>
            <path d="M270.833,252.863 L270.833,329.859 L274.5,329.859 L274.5,252.863 C274.5,252.863 273.167,248.867 270.833,252.863 L270.833,252.863 Z" id="Stroke-93" stroke="#0B0A0B" stroke-width="3" sketch:type="MSShapeGroup"></path>
            <path d="M329.974,254.421 L329.974,331.417 L333.641,331.417 L333.641,254.421 C333.641,254.421 332.307,250.425 329.974,254.421" id="Fill-94" fill="#617A80" sketch:type="MSShapeGroup"></path>
            <path d="M329.974,254.421 L329.974,331.417 L333.641,331.417 L333.641,254.421 C333.641,254.421 332.307,250.425 329.974,254.421 L329.974,254.421 Z" id="Stroke-95" stroke="#0B0A0B" stroke-width="3" sketch:type="MSShapeGroup"></path>
            <path d="M285.591,348.042 C285.591,348.042 283.195,340.673 277.695,348.042" id="Fill-96" fill="#FFFFFF" sketch:type="MSShapeGroup"></path>
            <path d="M285.591,348.042 C285.591,348.042 283.195,340.673 277.695,348.042" id="Stroke-97" stroke="#0B0A0B" stroke-width="3" sketch:type="MSShapeGroup"></path>
            <path d="M262.432,342.843 C262.432,342.843 267.088,323.525 277.695,332.775 C277.695,332.775 284.036,339.664 279.643,342.843 C275.25,346.025 279.643,353.775 279.643,353.775 C279.643,353.775 283.17,347.076 286.397,346.406 C286.857,346.31 287.313,346.337 287.75,346.525 C287.75,346.525 291.744,346.775 290.247,352.775 C288.75,358.775 282.515,367.275 271.882,365.275 C271.882,365.275 264.396,363.218 263.646,360.218 C262.896,357.218 258.5,362.501 262.432,342.843" id="Fill-98" fill="#FFFFFF" sketch:type="MSShapeGroup"></path>
            <path d="M262.432,342.843 C262.432,342.843 267.088,323.525 277.695,332.775 C277.695,332.775 284.036,339.664 279.643,342.843 C275.25,346.025 279.643,353.775 279.643,353.775 C279.643,353.775 283.17,347.076 286.397,346.406 C286.857,346.31 287.313,346.337 287.75,346.525 C287.75,346.525 291.744,346.775 290.247,352.775 C288.75,358.775 282.515,367.275 271.882,365.275 C271.882,365.275 264.396,363.218 263.646,360.218 C262.896,357.218 258.5,362.501 262.432,342.843 L262.432,342.843 Z" id="Stroke-99" stroke="#0B0A0B" stroke-width="3" sketch:type="MSShapeGroup"></path>
            <path d="M320.082,346.529 C320.082,346.529 322.479,339.16 327.979,346.529" id="Fill-100" fill="#FFFFFF" sketch:type="MSShapeGroup"></path>
            <path d="M320.082,346.529 C320.082,346.529 322.479,339.16 327.979,346.529" id="Stroke-101" stroke="#0B0A0B" stroke-width="3" sketch:type="MSShapeGroup"></path>
            <path d="M343.242,341.33 C343.242,341.33 338.586,322.009 327.979,331.259 C327.979,331.259 321.638,338.148 326.031,341.33 C330.424,344.509 326.031,352.259 326.031,352.259 C326.031,352.259 322.504,345.56 319.277,344.89 C318.816,344.794 318.361,344.822 317.924,345.009 C317.924,345.009 313.93,345.259 315.427,351.259 C316.924,357.259 323.159,365.759 333.791,363.759 C333.791,363.759 341.277,361.705 342.027,358.705 C342.777,355.705 347.174,360.986 343.242,341.33" id="Fill-102" fill="#FFFFFF" sketch:type="MSShapeGroup"></path>
            <path d="M343.242,341.33 C343.242,341.33 338.586,322.009 327.979,331.259 C327.979,331.259 321.638,338.148 326.031,341.33 C330.424,344.509 326.031,352.259 326.031,352.259 C326.031,352.259 322.504,345.56 319.277,344.89 C318.816,344.794 318.361,344.822 317.924,345.009 C317.924,345.009 313.93,345.259 315.427,351.259 C316.924,357.259 323.159,365.759 333.791,363.759 C333.791,363.759 341.277,361.705 342.027,358.705 C342.777,355.705 347.174,360.986 343.242,341.33 L343.242,341.33 Z" id="Stroke-103" stroke="#0B0A0B" stroke-width="3" sketch:type="MSShapeGroup"></path>
            <path d="M0.5,346.935 C7.544,347.576 35.045,369.349 69.591,335.15 L91.59,265.529 L0.501,280.114 L0.5,346.935" id="Fill-104" fill="#F6CABC" sketch:type="MSShapeGroup"></path>
            <path d="M0.5,346.935 C7.544,347.576 35.045,369.349 69.591,335.15 L91.59,265.529 L0.501,280.114 L0.5,346.935 L0.5,346.935 Z" id="Stroke-105" stroke="#401E1D" stroke-width="3" sketch:type="MSShapeGroup"></path>
            <path d="M35.045,196.121 L99.442,190.358 C99.442,190.358 102.359,188.202 113.458,189.397 C114.13,189.47 114.833,189.554 115.567,189.652 C121.967,190.509 130.742,192.395 142.67,196.122 C178.532,207.329 231.045,213.092 231.045,213.092 C231.045,213.092 254.42,213.093 244.494,233.585 C234.567,254.078 196.463,256.32 156.758,242.231 C117.053,228.142 102.004,267.207 102.004,267.207 C102.004,267.207 56.536,333.167 27.397,328.044 C0.5,323.316 0.5,321.32 0.5,321.32 L0.5,138.05 C0.5,138.05 50.451,95.418 71.104,93.016 C91.757,90.614 122.016,97.338 123.457,98.299 C124.898,99.26 143.715,100.576 143.715,100.576 L114.833,189.554" id="Fill-107" fill="#F6CABC" sketch:type="MSShapeGroup"></path>
            <path d="M35.045,196.121 L99.442,190.358 C99.442,190.358 102.359,188.202 113.458,189.397 C114.13,189.47 114.833,189.554 115.567,189.652 C121.967,190.509 130.742,192.395 142.67,196.122 C178.532,207.329 231.045,213.092 231.045,213.092 C231.045,213.092 254.42,213.093 244.494,233.585 C234.567,254.078 196.463,256.32 156.758,242.231 C117.053,228.142 102.004,267.207 102.004,267.207 C102.004,267.207 56.536,333.167 27.397,328.044 C0.5,323.316 0.5,321.32 0.5,321.32 L0.5,138.05 C0.5,138.05 50.451,95.418 71.104,93.016 C91.757,90.614 122.016,97.338 123.457,98.299 C124.898,99.26 143.715,100.576 143.715,100.576 L114.833,189.554" id="Stroke-108" stroke="#401E1D" stroke-width="3" sketch:type="MSShapeGroup"></path>
            <path d="M236.123,213.252 C239.139,228.12 212.498,223.963 212.498,223.963 C212.498,223.963 213.168,210.173 212.498,210.079 L236.123,213.252" id="Fill-110" fill="#FFFFFF" sketch:type="MSShapeGroup"></path>
            <path d="M236.123,213.252 C239.139,228.12 212.498,223.963 212.498,223.963 C212.498,223.963 213.168,210.173 212.498,210.079 L236.123,213.252 L236.123,213.252 Z" id="Stroke-111" stroke="#321817" stroke-width="3" sketch:type="MSShapeGroup"></path>
            <path d="M60.075,193.881 L35.045,172.842" id="Fill-112" fill="#F6CABC" sketch:type="MSShapeGroup"></path>
            <path d="M60.075,193.881 L35.045,172.842" id="Stroke-113" stroke="#401E1D" stroke-width="3" sketch:type="MSShapeGroup"></path>
            <path d="M607.788,364.613 C600.736,365.179 573.006,386.658 538.826,352.091 L517.574,282.239 L608.501,297.796 L607.788,364.613" id="Fill-114" fill="#F6CABC" sketch:type="MSShapeGroup"></path>
            <path d="M607.788,364.613 C600.736,365.179 573.006,386.658 538.826,352.091 L517.574,282.239 L608.501,297.796 L607.788,364.613 L607.788,364.613 Z" id="Stroke-115" stroke="#401E1D" stroke-width="3" sketch:type="MSShapeGroup"></path>
            <path d="M574.857,213.438 L510.524,206.987 C510.524,206.987 507.631,204.801 496.521,205.877 C495.847,205.942 495.144,206.02 494.409,206.109 C488.001,206.898 479.206,208.689 467.239,212.289 C431.258,223.111 378.688,228.313 378.688,228.313 C378.688,228.313 355.313,228.065 365.02,248.662 C374.727,269.259 412.806,271.908 452.658,258.245 C492.512,244.581 507.143,283.804 507.143,283.804 C507.143,283.804 551.904,350.246 581.094,345.435 C608.041,340.996 608.062,339 608.062,339 L610.021,155.74 C610.021,155.74 560.529,112.576 539.902,109.954 C519.274,107.332 488.947,113.731 487.495,114.677 C486.043,115.622 467.215,116.737 467.215,116.737 L495.144,206.02" id="Fill-117" fill="#F6CABC" sketch:type="MSShapeGroup"></path>
            <path d="M574.857,213.438 L510.524,206.987 C510.524,206.987 507.631,204.801 496.521,205.877 C495.847,205.942 495.144,206.02 494.409,206.109 C488.001,206.898 479.206,208.689 467.239,212.289 C431.258,223.111 378.688,228.313 378.688,228.313 C378.688,228.313 355.313,228.065 365.02,248.662 C374.727,269.259 412.806,271.908 452.658,258.245 C492.512,244.581 507.143,283.804 507.143,283.804 C507.143,283.804 551.904,350.246 581.094,345.435 C608.041,340.996 608.062,339 608.062,339 L610.021,155.74 C610.021,155.74 560.529,112.576 539.902,109.954 C519.274,107.332 488.947,113.731 487.495,114.677 C486.043,115.622 467.215,116.737 467.215,116.737 L495.144,206.02" id="Stroke-118" stroke="#401E1D" stroke-width="3" sketch:type="MSShapeGroup"></path>
            <path d="M395.956,226.264 C395.285,226.352 395.808,240.148 395.808,240.148 C395.808,240.148 369.124,244.02 372.299,229.185" id="Fill-120" fill="#FFFFFF" sketch:type="MSShapeGroup"></path>
            <path d="M395.956,226.264 C395.285,226.352 395.808,240.148 395.808,240.148 C395.808,240.148 369.124,244.02 372.299,229.185" id="Stroke-121" stroke="#401E1D" stroke-width="3" sketch:type="MSShapeGroup"></path>
            <path d="M549.853,210.931 L575.106,190.161" id="Fill-122" fill="#F6CABC" sketch:type="MSShapeGroup"></path>
            <path d="M549.853,210.931 L575.106,190.161" id="Stroke-123" stroke="#401E1D" stroke-width="3" sketch:type="MSShapeGroup"></path>
            <path d="M512.927,204.274 C518.682,214.977 520.356,204.274 520.356,204.274 C520.356,204.274 519.535,195.89 512.927,197.51 C506.317,199.13 507.897,203.728 507.897,203.728 L512.927,204.274" id="Fill-124" fill="#FFFFFF" sketch:type="MSShapeGroup"></path>
            <path d="M512.927,204.274 C518.682,214.977 520.356,204.274 520.356,204.274 C520.356,204.274 519.535,195.89 512.927,197.51 C506.317,199.13 507.897,203.728 507.897,203.728 L512.927,204.274 L512.927,204.274 Z" id="Stroke-125" stroke="#0B0A0B" stroke-width="3" sketch:type="MSShapeGroup"></path>
            <path d="M506.615,204.274 C512.369,214.977 514.044,204.274 514.044,204.274 C514.044,204.274 513.224,195.89 506.615,197.51 C500.006,199.13 501.585,203.728 501.585,203.728 L506.615,204.274" id="Fill-126" fill="#FFFFFF" sketch:type="MSShapeGroup"></path>
            <path d="M506.615,204.274 C512.369,214.977 514.044,204.274 514.044,204.274 C514.044,204.274 513.224,195.89 506.615,197.51 C500.006,199.13 501.585,203.728 501.585,203.728 L506.615,204.274 L506.615,204.274 Z" id="Stroke-127" stroke="#0B0A0B" stroke-width="3" sketch:type="MSShapeGroup"></path>
            <path d="M501.419,204.274 C507.174,214.977 508.849,204.274 508.849,204.274 C508.849,204.274 508.028,195.89 501.419,197.51 C494.811,199.13 496.389,203.728 496.389,203.728 L501.419,204.274" id="Fill-128" fill="#FFFFFF" sketch:type="MSShapeGroup"></path>
            <path d="M501.419,204.274 C507.174,214.977 508.849,204.274 508.849,204.274 C508.849,204.274 508.028,195.89 501.419,197.51 C494.811,199.13 496.389,203.728 496.389,203.728 L501.419,204.274 L501.419,204.274 Z" id="Stroke-129" stroke="#0B0A0B" stroke-width="3" sketch:type="MSShapeGroup"></path>
        </g>
    </g>
</svg>